<?xml version="1.0" encoding="UTF-8" standalone="no"?>
<!DOCTYPE svg PUBLIC "-//W3C//DTD SVG 1.1//EN" "http://www.w3.org/Graphics/SVG/1.1/DTD/svg11.dtd">
<svg xmlns:dc="http://purl.org/dc/elements/1.1/" version="1.1" xmlns="http://www.w3.org/2000/svg" xmlns:xl="http://www.w3.org/1999/xlink" viewBox="606.9699 432.09153 44 56.7" width="44" height="56.7">
  <defs/>
  <g id="Slide_-_Exigence" fill="none" stroke="none" stroke-opacity="1" stroke-dasharray="none" fill-opacity="1">
    <title>Slide - Exigence</title>
    <g id="Slide_-_Exigence_Calque_1">
      <title>Calque 1</title>
      <g id="Group_72">
        <g id="Group_76">
          <g id="Graphic_82">
            <title>SVGID_3_</title>
            <path d="M 650.8699 437.29153 L 650.8699 440.09153 C 650.8699 441.39153 647.2699 443.49153 640.4699 444.69153 C 637.2699 445.29153 633.4699 445.59153 628.9699 445.59153 C 614.7699 445.59153 606.9699 441.89153 606.9699 440.09153 L 606.9699 437.29153 C 606.9699 439.19153 614.7699 442.79153 628.9699 442.79153 C 633.4699 442.79153 637.3699 442.39153 640.4699 441.89153 C 647.2699 440.59153 650.8699 438.49153 650.8699 437.29153 Z" fill="black"/>
          </g>
          <g id="Graphic_81">
            <title>SVGID_3_</title>
            <path d="M 650.8699 437.29153 L 650.8699 440.09153 C 650.8699 441.39153 647.2699 443.49153 640.4699 444.69153 C 637.2699 445.29153 633.4699 445.59153 628.9699 445.59153 C 614.7699 445.59153 606.9699 441.89153 606.9699 440.09153 L 606.9699 437.29153 C 606.9699 439.19153 614.7699 442.79153 628.9699 442.79153 C 633.4699 442.79153 637.3699 442.39153 640.4699 441.89153 C 647.2699 440.59153 650.8699 438.49153 650.8699 437.29153 Z" fill="black"/>
          </g>
          <g id="Graphic_80">
            <path d="M 650.8699 437.29153 L 650.8699 440.09153 L 650.8699 440.19153 L 650.8699 437.39153 C 650.8699 437.29153 650.8699 437.29153 650.8699 437.29153" fill="#4f4f4f"/>
          </g>
          <g id="Graphic_79">
            <path d="M 650.8699 437.39153 L 650.8699 440.19153 C 650.8699 440.29153 650.8699 440.29153 650.8699 440.39153 L 650.8699 437.59153 C 650.8699 437.49153 650.8699 437.39153 650.8699 437.39153" fill="#4f4f4f"/>
          </g>
          <g id="Graphic_78">
            <path d="M 650.8699 437.49153 L 650.8699 440.29153 C 650.8699 440.39153 650.7699 440.49153 650.7699 440.49153 L 650.7699 437.69153 C 650.7699 437.69153 650.7699 437.59153 650.8699 437.49153" fill="#4f4f4f"/>
          </g>
          <g id="Graphic_77">
            <path d="M 650.7699 437.79153 L 650.7699 440.59153 C 649.9699 441.89153 646.4699 443.59153 640.4699 444.69153 C 637.2699 445.29153 633.4699 445.59153 628.9699 445.59153 C 614.7699 445.59153 606.9699 441.89153 606.9699 440.09153 L 606.9699 437.29153 C 606.9699 439.19153 614.7699 442.79153 628.9699 442.79153 C 633.4699 442.79153 637.3699 442.39153 640.4699 441.89153 C 646.4699 440.79153 649.9699 438.99153 650.7699 437.79153" fill="#4f4f4f"/>
          </g>
        </g>
        <g id="Graphic_75">
          <path d="M 650.8699 479.1915 C 650.8699 479.0915 650.9699 478.8915 650.9699 478.7915 L 650.9699 483.2915 C 650.9699 483.3915 650.9699 483.3915 650.9699 483.4915 C 650.9699 483.5915 650.9699 483.5915 650.8699 483.6915 C 650.8699 483.7915 650.7699 483.8915 650.7699 483.9915 C 650.7699 483.9915 650.7699 483.9915 650.7699 484.0915 C 650.7699 484.1915 650.6699 484.1915 650.6699 484.2915 C 650.5699 484.3915 650.5699 484.4915 650.4699 484.4915 C 650.3699 484.5915 650.3699 484.5915 650.2699 484.6915 C 650.1699 484.7915 650.0699 484.8915 649.9699 484.8915 C 649.8699 484.9915 649.7699 484.9915 649.6699 485.0915 C 649.5699 485.1915 649.4699 485.2915 649.2699 485.2915 C 649.1699 485.3915 649.0699 485.3915 648.9699 485.4915 C 648.8699 485.5915 648.6699 485.6915 648.4699 485.6915 C 648.3699 485.7915 648.2699 485.7915 648.0699 485.8915 C 647.8699 485.9915 647.6699 486.0915 647.4699 486.1915 C 647.3699 486.2915 647.2699 486.2915 647.0699 486.3915 C 646.7699 486.4915 646.3699 486.6915 645.9699 486.7915 C 645.8699 486.7915 645.6699 486.8915 645.5699 486.8915 C 645.2699 486.9915 644.9699 487.0915 644.6699 487.1915 C 644.4699 487.2915 644.2699 487.2915 644.0699 487.2915 C 643.7699 487.3915 643.4699 487.3915 643.1699 487.4915 C 642.9699 487.4915 642.7699 487.5915 642.4699 487.5915 C 642.1699 487.6915 641.8699 487.6915 641.5699 487.7915 C 641.3699 487.7915 641.0699 487.8915 640.8699 487.8915 C 640.5699 487.9915 640.1699 487.9915 639.8699 488.0915 C 639.5699 488.0915 639.3699 488.1915 639.0699 488.1915 C 638.6699 488.1915 638.2699 488.2915 637.9699 488.2915 C 637.6699 488.2915 637.3699 488.3915 637.0699 488.3915 C 636.8699 488.5915 636.3699 488.5915 635.9699 488.5915 C 635.6699 488.5915 635.3699 488.5915 635.0699 488.6915 C 634.5699 488.6915 634.0699 488.7915 633.5699 488.7915 C 633.2699 488.7915 633.0699 488.7915 632.7699 488.7915 C 631.9699 488.7915 631.1699 488.7915 630.2699 488.7915 C 622.2699 488.7915 616.2699 487.7915 612.2699 486.4915 C 609.3699 485.4915 607.2699 484.2915 607.0699 483.4915 L 607.0699 478.9915 C 607.2699 479.7915 609.1699 480.8915 611.7699 481.7915 L 611.5699 481.5915 C 615.4699 482.8915 622.1699 484.3915 630.1699 484.3915 C 631.0699 484.3915 631.8699 484.3915 632.6699 484.3915 C 632.9699 484.3915 633.1699 484.3915 633.4699 484.3915 C 633.9699 484.3915 634.5699 484.3915 635.0699 484.2915 C 635.3699 484.2915 635.6699 484.2915 635.8699 484.1915 C 636.2699 484.1915 636.7699 484.0915 637.1699 484.0915 C 637.4699 484.0915 637.6699 483.9915 637.9699 483.9915 C 638.3699 483.9915 638.7699 483.8915 639.1699 483.8915 C 639.4699 483.8915 639.6699 483.7915 639.9699 483.7915 C 640.3699 483.6915 640.6699 483.6915 641.0699 483.5915 L 646.0699 482.3915 C 646.4699 482.2915 646.8699 482.0915 647.1699 481.9915 L 648.1699 481.5915 C 648.2699 481.5915 648.3699 481.4915 648.3699 481.4915 C 648.5699 481.3915 648.7699 481.2915 648.9699 481.1915 C 649.0699 481.1915 649.1699 481.0915 649.1699 481.0915 C 649.3699 480.9915 649.4699 480.8915 649.5699 480.7915 C 649.6699 480.7915 649.6699 480.6915 649.7699 480.5915 C 649.8699 480.4915 649.9699 480.3915 650.0699 480.2915 C 650.1699 480.1915 650.1699 480.1915 650.2699 480.0915 C 650.3699 479.9915 650.4699 479.8915 650.4699 479.7915 L 650.5699 479.6915 Z" fill="#4f4f4f"/>
        </g>
        <g id="Graphic_74">
          <path d="M 628.9699 432.09153 C 633.4699 432.09153 637.3699 432.49153 640.4699 432.99153 C 647.2699 434.19153 650.8699 436.29153 650.8699 437.59153 C 650.8699 438.89153 647.2699 440.99153 640.4699 442.19153 C 637.2699 442.79153 633.4699 443.09153 628.9699 443.09153 C 614.7699 443.09153 606.9699 439.39153 606.9699 437.59153 C 606.9699 435.69153 614.7699 432.09153 628.9699 432.09153 Z" fill="#7d7c7c"/>
        </g>
        <g id="Graphic_73">
          <path d="M 640.1699 446.59153 C 639.5699 446.69153 638.9699 446.79153 638.3699 446.89153 C 638.0699 446.89153 637.7699 446.99153 637.4699 446.99153 C 636.8699 447.09153 636.3699 447.09153 635.7699 447.19153 C 635.3699 447.19153 635.0699 447.29153 634.6699 447.29153 C 633.9699 447.39153 633.1699 447.39153 632.4699 447.39153 L 632.0699 447.39153 C 631.1699 447.39153 630.2699 447.49153 629.3699 447.49153 C 629.1699 447.49153 628.9699 447.49153 628.7699 447.49153 C 620.0699 447.49153 611.2699 445.99153 606.9699 443.09153 L 606.9699 480.8915 C 607.1699 481.7915 609.2699 482.8915 612.1699 483.8915 C 616.0699 485.1915 622.1699 486.1915 630.1699 486.1915 C 644.7699 486.1915 650.8699 482.5915 650.8699 480.6915 L 650.8699 442.69153 C 648.6699 444.39153 644.9699 445.79153 640.1699 446.59153 Z" fill="#7d7c7c"/>
        </g>
      </g>
    </g>
  </g>
</svg>
