<?xml version="1.0" encoding="UTF-8" standalone="no"?>
<!DOCTYPE svg PUBLIC "-//W3C//DTD SVG 1.1//EN" "http://www.w3.org/Graphics/SVG/1.1/DTD/svg11.dtd">
<svg xmlns="http://www.w3.org/2000/svg" version="1.1" xmlns:xl="http://www.w3.org/1999/xlink" xmlns:dc="http://purl.org/dc/elements/1.1/" viewBox="36.60259 191.41084 695.97 212.99899" width="695.97" height="212.99899">
  <defs>
    <linearGradient x1="0" x2="1" id="Gradient" gradientUnits="userSpaceOnUse">
      <stop offset="0" stop-color="#00a7ff"/>
      <stop offset=".47924414" stop-color="#127bff"/>
      <stop offset="1" stop-color="#1b4dff"/>
    </linearGradient>
    <linearGradient id="Obj_Gradient" xl:href="#Gradient" gradientTransform="translate(659.23464 255.47716) rotate(90) scale(127.2)"/>
    <marker orient="auto" overflow="visible" markerUnits="strokeWidth" id="FilledArrow_Marker" stroke-linejoin="miter" stroke-miterlimit="10" viewBox="-1 -3 6 6" markerWidth="6" markerHeight="6" color="#0089c5">
      <g>
        <path d="M 3.36 0 L 0 -1.26 L 0 1.26 Z" fill="currentColor" stroke="currentColor" stroke-width="1"/>
      </g>
    </marker>
    <marker orient="auto" overflow="visible" markerUnits="strokeWidth" id="FilledArrow_Marker_2" stroke-linejoin="miter" stroke-miterlimit="10" viewBox="-1 -3 6 6" markerWidth="6" markerHeight="6" color="#277f8f">
      <g>
        <path d="M 3.36 0 L 0 -1.26 L 0 1.26 Z" fill="currentColor" stroke="currentColor" stroke-width="1"/>
      </g>
    </marker>
    <marker orient="auto" overflow="visible" markerUnits="strokeWidth" id="FilledArrow_Marker_3" stroke-linejoin="miter" stroke-miterlimit="10" viewBox="-1 -3 6 6" markerWidth="6" markerHeight="6" color="black">
      <g>
        <path d="M 3.36 0 L 0 -1.26 L 0 1.26 Z" fill="currentColor" stroke="currentColor" stroke-width="1"/>
      </g>
    </marker>
  </defs>
  <g id="Canevas_1" stroke-dasharray="none" stroke-opacity="1" stroke="none" fill-opacity="1" fill="none">
    <title>Canevas 1</title>
    <g id="Canevas_1_Calque_1">
      <title>Calque 1</title>
      <g id="Graphic_3">
        <path d="M 659.23464 255.47716 C 624.13464 255.47716 595.63464 283.97716 595.63464 319.07716 C 595.63464 354.17716 624.13464 382.67716 659.23464 382.67716 C 694.33464 382.67716 722.8346 354.17716 722.8346 319.07716 C 722.8346 283.97716 694.33464 255.47716 659.23464 255.47716 Z M 647.43464 347.27716 C 640.03464 347.37716 632.83464 344.77716 627.13464 339.97716 C 620.33464 334.27716 616.13464 325.97716 615.53464 317.07716 C 615.03464 308.57716 617.93464 300.17716 623.73464 293.97716 C 630.23464 286.77716 641.93464 275.67716 642.43464 275.17716 C 645.73464 272.27716 650.73464 272.57716 653.63464 275.87716 C 656.33464 278.97716 656.23464 283.67716 653.43464 286.57716 C 653.33464 286.67716 641.73464 297.77716 635.53464 304.57716 C 632.63464 307.67716 631.23464 311.87716 631.43464 316.07716 C 631.73464 320.67716 633.93464 324.97716 637.53464 327.97716 C 642.33464 332.17716 651.83464 333.07716 657.73464 327.77716 C 661.23464 324.57716 665.53464 319.97716 665.63464 319.87716 C 668.73464 316.77716 673.73464 316.67716 676.83464 319.77716 C 679.83464 322.67716 680.03464 327.47716 677.33464 330.67716 C 677.13464 330.87716 672.53464 335.87716 668.33464 339.57716 C 662.63464 344.67716 655.03464 347.27716 647.43464 347.27716 Z M 695.33464 346.67716 C 688.83464 353.87716 677.13464 364.97716 676.63464 365.47716 C 675.13464 366.87716 673.23464 367.67716 671.13464 367.67716 C 666.73464 367.67716 663.23464 364.17716 663.23464 359.77716 C 663.23464 357.57716 664.13464 355.57716 665.63464 354.07716 C 665.73464 353.97716 677.33464 342.87716 683.53464 336.07716 C 686.43464 332.97716 687.93464 328.77716 687.63464 324.57716 C 687.33464 319.97716 685.13464 315.67716 681.53464 312.67716 C 676.73464 308.47716 667.23464 307.57716 661.33464 312.87716 C 657.83464 316.07716 653.53464 320.67716 653.43464 320.77716 C 650.33464 323.87716 645.33464 323.97716 642.23464 320.97716 C 639.23464 318.07716 639.03464 313.27716 641.73464 310.07716 C 641.93464 309.87716 646.53464 304.77716 650.73464 301.17716 C 662.03464 291.07716 680.43464 290.87716 691.93464 300.77716 C 698.7346 306.47716 702.9346 314.77716 703.5346 323.67716 C 704.0346 332.07716 701.1346 340.37716 695.33464 346.67716 Z" fill="url(#Obj_Gradient)"/>
      </g>
      <g id="Group_15">
        <g id="Graphic_9">
          <path d="M 63.1786 236.2445 L 222.41874 236.2445 C 229.04615 236.2445 234.41874 241.61708 234.41874 248.2445 L 234.41874 351.92558 C 234.41874 358.553 229.04615 363.92558 222.41874 363.92558 L 63.1786 363.92558 C 56.55118 363.92558 51.178596 358.553 51.178596 351.92558 L 51.178596 248.2445 C 51.178596 241.61708 56.55118 236.2445 63.1786 236.2445 Z" stroke="black" stroke-linecap="round" stroke-linejoin="round" stroke-width="5"/>
        </g>
        <g id="Line_10">
          <line x1="49.80259" y1="338.69723" x2="234.41874" y2="339.49705" stroke="black" stroke-linecap="butt" stroke-linejoin="miter" stroke-width="4"/>
        </g>
        <g id="Line_11">
          <line x1="131.72922" y1="381.78384" x2="132.03498" y2="363.92558" stroke="black" stroke-linecap="butt" stroke-linejoin="miter" stroke-width="4"/>
        </g>
        <g id="Line_12">
          <line x1="155.07189" y1="381.78384" x2="155.37765" y2="363.92558" stroke="black" stroke-linecap="butt" stroke-linejoin="miter" stroke-width="4"/>
        </g>
        <g id="Graphic_13">
          <path d="M 100.40101 401.90983 L 189.15553 401.90983 C 194.08695 401.90983 198.08466 397.9121 198.08466 392.9807 L 198.08466 392.9807 C 198.08466 388.04927 194.08695 384.05156 189.15553 384.05156 L 100.40101 384.05156 C 95.46959 384.05156 91.47188 388.04927 91.47188 392.9807 L 91.47188 392.9807 C 91.47188 397.9121 95.46959 401.90983 100.40101 401.90983 Z" stroke="black" stroke-linecap="round" stroke-linejoin="round" stroke-width="5"/>
        </g>
      </g>
      <g id="Graphic_16">
        <text transform="translate(379.61613 260.47716)" fill="black">
          <tspan font-family="Arial" font-size="15" fill="black" x="0" y="14" xml:space="preserve">1,21 kB</tspan>
        </text>
      </g>
      <g id="Line_19">
        <path d="M 725.3795 291.53367 C 728.46275 291.0235 697.2887 228.27048 630.8919 252.96683 C 581.9357 278.66885 585.3832 319.3894 589.9876 337.74723" marker-end="url(#FilledArrow_Marker)" stroke="#0089c5" stroke-linecap="round" stroke-linejoin="round" stroke-width="2"/>
      </g>
      <g id="Line_20">
        <path d="M 593.0844 347.27706 C 593.00406 347.31093 618.74615 408.8373 687.3172 385.1875 C 736.4025 359.6455 733.0773 319.30502 728.49494 301.0567" marker-end="url(#FilledArrow_Marker_2)" stroke="#277f8f" stroke-linecap="round" stroke-linejoin="round" stroke-width="2"/>
      </g>
      <g id="Line_5">
        <path d="M 236.91874 255.85564 C 284.03204 239.015 345.04778 224.34537 411.0236 226.77165 C 488.5113 229.6213 553.5432 255.34367 597.578 278.9119" marker-end="url(#FilledArrow_Marker_3)" stroke="black" stroke-linecap="round" stroke-linejoin="round" stroke-width="2"/>
      </g>
      <g id="Graphic_24">
        <text transform="translate(532.08304 310.3318)" fill="black">
          <tspan font-family="Arial" font-size="15" fill="black" x="0" y="14" xml:space="preserve">120 ms</tspan>
        </text>
      </g>
      <g id="Group_51">
        <g id="Graphic_28">
          <path d="M 393.92595 192.99449 L 424.18154 192.51358 C 425.2122 192.51358 423.70064 203.81486 423.70064 203.81486 L 433.57266 203.6134 C 434.6031 203.59236 435.4555 204.41066 435.47653 205.4411 C 435.47683 205.45572 435.47696 205.47034 435.4769 205.48496 L 435.34127 249.31789 C 435.34127 250.34855 434.50575 251.18407 433.4751 251.18407 L 393.92595 251.18407 C 392.8953 251.18407 392.05977 250.34855 392.05977 249.31789 L 392.05977 194.86067 C 392.05977 193.83 392.8953 192.99449 393.92595 192.99449 Z" stroke="black" stroke-linecap="round" stroke-linejoin="round" stroke-width="2.2054865"/>
        </g>
        <g id="Graphic_40">
          <path d="M 397.756 205.90448 L 411.8044 205.93998 C 412.41343 205.94152 412.9084 205.44906 412.90993 204.84003 C 412.91147 204.231 412.419 203.73604 411.81 203.7345 L 397.76155 203.699 C 397.15253 203.69746 396.65757 204.18993 396.65603 204.79895 C 396.6545 205.40798 397.14695 205.90294 397.756 205.90448 Z" fill="black"/>
        </g>
        <g id="Graphic_41">
          <path d="M 411.40917 214.21098 L 429.1596 214.2615 C 429.7218 214.2631 430.1788 213.80866 430.1804 213.24648 C 430.182 212.6843 429.7276 212.22727 429.1654 212.22567 L 411.41496 212.17515 C 410.8528 212.17355 410.39575 212.628 410.39415 213.19017 C 410.39255 213.75235 410.847 214.20938 411.40917 214.21098 Z" fill="black"/>
        </g>
        <g id="Graphic_42">
          <path d="M 397.75266 214.21096 L 406.68953 214.26454 C 407.2517 214.2679 407.71016 213.8149 407.71353 213.25274 C 407.7169 212.69057 407.2639 212.2321 406.70173 212.22874 L 397.76487 212.17517 C 397.2027 212.1718 396.74424 212.6248 396.74087 213.18696 C 396.7375 213.74913 397.1905 214.2076 397.75266 214.21096 Z" fill="black"/>
        </g>
        <g id="Graphic_43">
          <path d="M 397.7576 221.5913 L 429.1613 221.628 C 429.7235 221.62866 430.17977 221.17346 430.1804 220.61128 C 430.1811 220.0491 429.7259 219.59283 429.1637 219.59217 L 397.75996 219.55546 C 397.1978 219.5548 396.7415 220.01 396.74085 220.5722 C 396.7402 221.13437 397.1954 221.59064 397.7576 221.5913 Z" fill="black"/>
        </g>
        <g id="Graphic_44">
          <path d="M 397.99575 228.9716 L 415.7462 229.02212 C 416.30837 229.02372 416.7654 228.5693 416.767 228.0071 C 416.7686 227.44493 416.31417 226.9879 415.752 226.9863 L 398.00154 226.93578 C 397.43937 226.93418 396.98233 227.38862 396.98073 227.9508 C 396.97913 228.51297 397.43357 228.97 397.99575 228.9716 Z" fill="black"/>
        </g>
        <g id="Graphic_45">
          <path d="M 420.21954 228.9716 L 429.1564 229.02517 C 429.7186 229.02854 430.17704 228.57554 430.1804 228.01337 C 430.1838 227.4512 429.7308 226.99274 429.1686 226.98937 L 420.23175 226.9358 C 419.6696 226.93242 419.2111 227.38542 419.20775 227.9476 C 419.2044 228.50976 419.65737 228.96822 420.21954 228.9716 Z" fill="black"/>
        </g>
        <g id="Graphic_49">
          <path d="M 423.23773 193.03594 L 433.78716 204.53215 L 435.41216 203.04098 L 424.8627 191.54477 Z" fill="black"/>
        </g>
        <g id="Graphic_46">
          <path d="M 397.99746 236.35192 L 429.4012 236.38863 C 429.9634 236.3893 430.41965 235.93408 430.4203 235.3719 C 430.42096 234.80973 429.96576 234.35346 429.4036 234.3528 L 397.99984 234.3161 C 397.43766 234.31543 396.9814 234.77064 396.98073 235.33282 C 396.98007 235.895 397.4353 236.35126 397.99746 236.35192 Z" fill="black"/>
        </g>
        <g id="Graphic_47">
          <path d="M 420.21954 243.73222 L 429.1564 243.7858 C 429.7186 243.78916 430.17704 243.33617 430.1804 242.774 C 430.1838 242.21183 429.7308 241.75337 429.1686 241.75 L 420.23175 241.69642 C 419.6696 241.69305 419.2111 242.14605 419.20775 242.70822 C 419.2044 243.2704 419.65737 243.72885 420.21954 243.73222 Z" fill="black"/>
        </g>
      </g>
    </g>
  </g>
</svg>
