<svg class="main-svg" xmlns="http://www.w3.org/2000/svg" xmlns:xlink="http://www.w3.org/1999/xlink" width="700" height="500" style="" viewBox="0 0 700 500"><rect x="0" y="0" width="700" height="500" style="fill: rgb(255, 255, 255); fill-opacity: 1;"/><defs id="defs-88dff0"><g class="clips"><clipPath id="clip88dff0xyplot" class="plotclip"><rect width="510" height="320"/></clipPath><clipPath class="axesclip" id="clip88dff0x"><rect x="80" y="0" width="510" height="500"/></clipPath><clipPath class="axesclip" id="clip88dff0y"><rect x="0" y="100" width="700" height="320"/></clipPath><clipPath class="axesclip" id="clip88dff0xy"><rect x="80" y="100" width="510" height="320"/></clipPath></g><g class="gradients"/><g class="patterns"/></defs><g class="bglayer"><rect class="bg" x="80" y="100" width="510" height="320" style="fill: rgb(229, 236, 246); fill-opacity: 1; stroke-width: 0;"/></g><g class="layer-below"><g class="imagelayer"/><g class="shapelayer"/></g><g class="cartesianlayer"><g class="subplot xy"><g class="layer-subplot"><g class="shapelayer"/><g class="imagelayer"/></g><g class="minor-gridlayer"><g class="x"><path class="xgrid crisp" transform="translate(86.42,0)" d="M0,100v320" style="stroke: rgb(128, 128, 128); stroke-opacity: 1; stroke-dasharray: 3px, 3px; stroke-width: 1px;"/><path class="xgrid crisp" transform="translate(130.11,0)" d="M0,100v320" style="stroke: rgb(128, 128, 128); stroke-opacity: 1; stroke-dasharray: 3px, 3px; stroke-width: 1px;"/><path class="xgrid crisp" transform="translate(151.95999999999998,0)" d="M0,100v320" style="stroke: rgb(128, 128, 128); stroke-opacity: 1; stroke-dasharray: 3px, 3px; stroke-width: 1px;"/><path class="xgrid crisp" transform="translate(173.81,0)" d="M0,100v320" style="stroke: rgb(128, 128, 128); stroke-opacity: 1; stroke-dasharray: 3px, 3px; stroke-width: 1px;"/><path class="xgrid crisp" transform="translate(195.66,0)" d="M0,100v320" style="stroke: rgb(128, 128, 128); stroke-opacity: 1; stroke-dasharray: 3px, 3px; stroke-width: 1px;"/><path class="xgrid crisp" transform="translate(239.35,0)" d="M0,100v320" style="stroke: rgb(128, 128, 128); stroke-opacity: 1; stroke-dasharray: 3px, 3px; stroke-width: 1px;"/><path class="xgrid crisp" transform="translate(261.2,0)" d="M0,100v320" style="stroke: rgb(128, 128, 128); stroke-opacity: 1; stroke-dasharray: 3px, 3px; stroke-width: 1px;"/><path class="xgrid crisp" transform="translate(283.05,0)" d="M0,100v320" style="stroke: rgb(128, 128, 128); stroke-opacity: 1; stroke-dasharray: 3px, 3px; stroke-width: 1px;"/><path class="xgrid crisp" transform="translate(304.89,0)" d="M0,100v320" style="stroke: rgb(128, 128, 128); stroke-opacity: 1; stroke-dasharray: 3px, 3px; stroke-width: 1px;"/><path class="xgrid crisp" transform="translate(348.59,0)" d="M0,100v320" style="stroke: rgb(128, 128, 128); stroke-opacity: 1; stroke-dasharray: 3px, 3px; stroke-width: 1px;"/><path class="xgrid crisp" transform="translate(370.43,0)" d="M0,100v320" style="stroke: rgb(128, 128, 128); stroke-opacity: 1; stroke-dasharray: 3px, 3px; stroke-width: 1px;"/><path class="xgrid crisp" transform="translate(392.28,0)" d="M0,100v320" style="stroke: rgb(128, 128, 128); stroke-opacity: 1; stroke-dasharray: 3px, 3px; stroke-width: 1px;"/><path class="xgrid crisp" transform="translate(414.13,0)" d="M0,100v320" style="stroke: rgb(128, 128, 128); stroke-opacity: 1; stroke-dasharray: 3px, 3px; stroke-width: 1px;"/><path class="xgrid crisp" transform="translate(457.82,0)" d="M0,100v320" style="stroke: rgb(128, 128, 128); stroke-opacity: 1; stroke-dasharray: 3px, 3px; stroke-width: 1px;"/><path class="xgrid crisp" transform="translate(479.67,0)" d="M0,100v320" style="stroke: rgb(128, 128, 128); stroke-opacity: 1; stroke-dasharray: 3px, 3px; stroke-width: 1px;"/><path class="xgrid crisp" transform="translate(501.52,0)" d="M0,100v320" style="stroke: rgb(128, 128, 128); stroke-opacity: 1; stroke-dasharray: 3px, 3px; stroke-width: 1px;"/><path class="xgrid crisp" transform="translate(523.37,0)" d="M0,100v320" style="stroke: rgb(128, 128, 128); stroke-opacity: 1; stroke-dasharray: 3px, 3px; stroke-width: 1px;"/><path class="xgrid crisp" transform="translate(567.06,0)" d="M0,100v320" style="stroke: rgb(128, 128, 128); stroke-opacity: 1; stroke-dasharray: 3px, 3px; stroke-width: 1px;"/><path class="xgrid crisp" transform="translate(588.9100000000001,0)" d="M0,100v320" style="stroke: rgb(128, 128, 128); stroke-opacity: 1; stroke-dasharray: 3px, 3px; stroke-width: 1px;"/></g><g class="y"><path class="ygrid crisp" transform="translate(0,416.65)" d="M80,0h510" style="stroke: rgb(128, 128, 128); stroke-opacity: 1; stroke-dasharray: 3px, 3px; stroke-width: 1px;"/><path class="ygrid crisp" transform="translate(0,391.35)" d="M80,0h510" style="stroke: rgb(128, 128, 128); stroke-opacity: 1; stroke-dasharray: 3px, 3px; stroke-width: 1px;"/><path class="ygrid crisp" transform="translate(0,378.71)" d="M80,0h510" style="stroke: rgb(128, 128, 128); stroke-opacity: 1; stroke-dasharray: 3px, 3px; stroke-width: 1px;"/><path class="ygrid crisp" transform="translate(0,366.06)" d="M80,0h510" style="stroke: rgb(128, 128, 128); stroke-opacity: 1; stroke-dasharray: 3px, 3px; stroke-width: 1px;"/><path class="ygrid crisp" transform="translate(0,340.77)" d="M80,0h510" style="stroke: rgb(128, 128, 128); stroke-opacity: 1; stroke-dasharray: 3px, 3px; stroke-width: 1px;"/><path class="ygrid crisp" transform="translate(0,328.13)" d="M80,0h510" style="stroke: rgb(128, 128, 128); stroke-opacity: 1; stroke-dasharray: 3px, 3px; stroke-width: 1px;"/><path class="ygrid crisp" transform="translate(0,315.48)" d="M80,0h510" style="stroke: rgb(128, 128, 128); stroke-opacity: 1; stroke-dasharray: 3px, 3px; stroke-width: 1px;"/><path class="ygrid crisp" transform="translate(0,290.19)" d="M80,0h510" style="stroke: rgb(128, 128, 128); stroke-opacity: 1; stroke-dasharray: 3px, 3px; stroke-width: 1px;"/><path class="ygrid crisp" transform="translate(0,277.55)" d="M80,0h510" style="stroke: rgb(128, 128, 128); stroke-opacity: 1; stroke-dasharray: 3px, 3px; stroke-width: 1px;"/><path class="ygrid crisp" transform="translate(0,264.9)" d="M80,0h510" style="stroke: rgb(128, 128, 128); stroke-opacity: 1; stroke-dasharray: 3px, 3px; stroke-width: 1px;"/><path class="ygrid crisp" transform="translate(0,239.61)" d="M80,0h510" style="stroke: rgb(128, 128, 128); stroke-opacity: 1; stroke-dasharray: 3px, 3px; stroke-width: 1px;"/><path class="ygrid crisp" transform="translate(0,226.95999999999998)" d="M80,0h510" style="stroke: rgb(128, 128, 128); stroke-opacity: 1; stroke-dasharray: 3px, 3px; stroke-width: 1px;"/><path class="ygrid crisp" transform="translate(0,214.32)" d="M80,0h510" style="stroke: rgb(128, 128, 128); stroke-opacity: 1; stroke-dasharray: 3px, 3px; stroke-width: 1px;"/><path class="ygrid crisp" transform="translate(0,189.03)" d="M80,0h510" style="stroke: rgb(128, 128, 128); stroke-opacity: 1; stroke-dasharray: 3px, 3px; stroke-width: 1px;"/><path class="ygrid crisp" transform="translate(0,176.38)" d="M80,0h510" style="stroke: rgb(128, 128, 128); stroke-opacity: 1; stroke-dasharray: 3px, 3px; stroke-width: 1px;"/><path class="ygrid crisp" transform="translate(0,163.74)" d="M80,0h510" style="stroke: rgb(128, 128, 128); stroke-opacity: 1; stroke-dasharray: 3px, 3px; stroke-width: 1px;"/><path class="ygrid crisp" transform="translate(0,138.45)" d="M80,0h510" style="stroke: rgb(128, 128, 128); stroke-opacity: 1; stroke-dasharray: 3px, 3px; stroke-width: 1px;"/><path class="ygrid crisp" transform="translate(0,125.8)" d="M80,0h510" style="stroke: rgb(128, 128, 128); stroke-opacity: 1; stroke-dasharray: 3px, 3px; stroke-width: 1px;"/><path class="ygrid crisp" transform="translate(0,113.15)" d="M80,0h510" style="stroke: rgb(128, 128, 128); stroke-opacity: 1; stroke-dasharray: 3px, 3px; stroke-width: 1px;"/></g></g><g class="gridlayer"><g class="x"><path class="xgrid crisp" transform="translate(217.5,0)" d="M0,100v320" style="stroke: rgb(0, 0, 0); stroke-opacity: 1; stroke-width: 1px;"/><path class="xgrid crisp" transform="translate(326.74,0)" d="M0,100v320" style="stroke: rgb(0, 0, 0); stroke-opacity: 1; stroke-width: 1px;"/><path class="xgrid crisp" transform="translate(435.98,0)" d="M0,100v320" style="stroke: rgb(0, 0, 0); stroke-opacity: 1; stroke-width: 1px;"/><path class="xgrid crisp" transform="translate(545.21,0)" d="M0,100v320" style="stroke: rgb(0, 0, 0); stroke-opacity: 1; stroke-width: 1px;"/></g><g class="y"><path class="ygrid crisp" transform="translate(0,353.41999999999996)" d="M80,0h510" style="stroke: rgb(0, 0, 0); stroke-opacity: 1; stroke-width: 1px;"/><path class="ygrid crisp" transform="translate(0,302.84000000000003)" d="M80,0h510" style="stroke: rgb(0, 0, 0); stroke-opacity: 1; stroke-width: 1px;"/><path class="ygrid crisp" transform="translate(0,252.25)" d="M80,0h510" style="stroke: rgb(0, 0, 0); stroke-opacity: 1; stroke-width: 1px;"/><path class="ygrid crisp" transform="translate(0,201.67000000000002)" d="M80,0h510" style="stroke: rgb(0, 0, 0); stroke-opacity: 1; stroke-width: 1px;"/><path class="ygrid crisp" transform="translate(0,151.09)" d="M80,0h510" style="stroke: rgb(0, 0, 0); stroke-opacity: 1; stroke-width: 1px;"/></g></g><g class="zerolinelayer"><path class="xzl zl crisp" transform="translate(108.27,0)" d="M0,100v320" style="stroke: rgb(255, 255, 255); stroke-opacity: 1; stroke-width: 2px;"/><path class="yzl zl crisp" transform="translate(0,404)" d="M80,0h510" style="stroke: rgb(255, 255, 255); stroke-opacity: 1; stroke-width: 2px;"/></g><g class="layer-between"><g class="shapelayer"/><g class="imagelayer"/></g><path class="xlines-below"/><path class="ylines-below"/><g class="overlines-below"/><g class="xaxislayer-below"/><g class="yaxislayer-below"/><g class="overaxes-below"/><g class="overplot"><g class="xy" transform="translate(80,100)" clip-path="url(#clip88dff0xyplot)"><g class="scatterlayer mlayer"><g class="trace scatter trace57a17a" style="stroke-miterlimit: 2; opacity: 0.5;"><g class="fills"/><g class="errorbars"/><g class="lines"><path class="js-line" d="M28.27,303.04L28.28,303.97L28.75,268.77L29.02,300.91L29.03,298.87L29.25,221.26L29.57,303.69L29.78,301.67L29.79,301.02L30.32,303.86L30.4,163.23L30.54,299.21L30.55,295.78L30.68,84.94L31.05,303.69L31.3,296.07L31.31,283.04L31.36,303.56L31.46,130.41L32.05,288.14L32.06,292.79L32.09,187.59L32.33,303.89L32.81,299.99L32.82,285.12L33.08,19.75L33.22,303.74L33.57,282.66L33.58,288.01L33.78,303.85L34,212.32L34.33,293.74L34.34,276.41L34.69,139.91L35.05,303.67L35.09,295.73L35.1,298.11L35.17,303.9L35.48,97.39L35.85,295.77L35.86,286.72L35.91,160.24L36.25,303.93L36.61,275.4L36.62,286.71L36.62,303.87L36.86,237.55L37.37,300.19L37.38,301.6L37.47,303.85L37.94,147.43L38.13,291.95L38.14,295.54L38.46,217.11L38.88,303.91L38.89,300.48L38.9,297.94L39.11,272.9L39.51,303.95L39.65,296.87L39.66,303.36L39.96,303.89L40.39,255.35L40.41,296.2L40.42,290.84L40.84,303.88L41.12,233.77L41.17,296.74L41.18,280.17L41.18,241.26L41.81,303.96L41.93,297.95L41.94,300.33L42.31,303.98L42.68,224.66L42.69,251.48L42.7,261.31L42.7,218.57L43.09,303.86L43.45,287.25L43.46,296.75L43.55,232.15L43.91,303.94L44.21,297.68L44.22,297.73L44.33,282.89L44.71,303.95L44.97,293.97L44.98,295.27L45.05,303.88L45.41,274.08L45.73,294.49L45.74,297.99L46.12,279.2L46.39,303.92L46.49,295.1L46.5,297.82L47.23,303.93L47.25,270.03L47.25,288.14L47.26,291.85L47.26,303.87L47.53,242.25L48.01,280.24L48.02,292.2L48.28,303.74L48.68,242.77L48.77,290.65L48.78,297.68L48.8,253.28L49.39,303.93L49.53,297.54L49.54,297.84L49.67,303.92L49.92,274.94L50.29,301.44L50.3,303.29L50.35,303.96L50.83,277.09L51.05,288.26L51.06,297.7L51.21,277.12L51.59,303.91L51.81,301.39L51.82,298.5L52.43,303.96L52.56,281.55L52.57,287.94L52.58,294.44L52.58,288L52.86,303.95L53.33,301.83L53.34,297.22L53.36,303.95L54.09,270.21L54.09,291.67L54.1,289.29L54.1,281.1L54.22,303.99L54.85,301.38L54.86,301.29L54.89,289.23L55.12,303.99L55.61,301.16L55.62,300.07L55.9,303.94L56.04,288.16L56.37,300.12L56.38,297.55L56.55,303.91L57.12,269.6L57.13,288.72L57.14,294.43L57.15,263.99L57.55,303.79L57.89,298.5L57.9,298.55L58.27,303.89L58.58,276.13L58.65,301.74L58.66,300.66L58.89,273.8L59.37,303.9L59.41,297.49L59.42,300.46L59.52,287.91L59.64,303.96L60.17,297.11L60.18,296.63L60.91,303.97L60.93,291.05L60.93,297.53L60.94,297.92L61.22,303.96L61.69,292.35L61.69,296.93L61.7,297.27L62.36,285.62L62.42,303.96L62.45,301.19L62.46,295.29L62.83,276.97L63.02,303.89L63.21,300.91L63.22,301.29L63.57,303.88L63.66,285.51L63.97,296.77L63.98,299.29L64.02,303.92L64.67,285.35L64.72,300.68L64.73,302.83L64.77,303.93L65.48,289.41L65.48,295.32L65.49,296.95L65.91,303.93L66.02,284.64L66.24,296.95L66.25,301.49L66.51,303.96L66.79,271.71L67,290.28L67.01,302.86L67.18,276.16L67.4,303.81L67.76,299.66L67.77,299.8L67.89,278.72L68.18,303.96L68.52,301.49L68.53,297.55L68.58,281.26L68.72,303.96L69.28,299.9L69.29,298.44L69.4,303.97L69.48,279.42L70.04,302.15L70.05,300.65L70.12,290.51L70.51,303.94L70.8,301.08L70.81,303.15L70.84,303.94L71.51,293.6L71.56,303.1L71.57,301.74L71.69,289.1L72.03,303.95L72.32,302.29L72.33,297.57L72.94,291.42L73.08,303.99L73.08,299.84L73.09,300.81L73.16,292.75L73.68,303.98L73.84,300.02L73.85,299.34L73.92,303.98L74.53,293.54L74.6,303.42L74.61,300.6L74.77,294.19L75.18,303.99L75.36,302.05L75.37,300.71L75.77,303.95L76.01,294.06L76.12,300.42L76.13,302.76L76.35,303.94L76.56,291.83L76.88,301.61L76.89,303.7L77.05,293.31L77.15,303.96L77.64,301.84L77.65,303.78L78.25,303.95L78.34,294.42L78.4,301.58L78.41,299.73L78.48,303.96L78.74,291.78L79.16,298.36L79.17,301.53L79.3,303.9L79.72,293.61L79.92,302.72L79.93,300.7L80.04,303.97L80.32,284.77L80.68,301.54L80.69,303.1L81.32,295.13L81.39,303.97L81.44,302.63L81.45,301.14L81.69,295.76L82.03,303.95L82.2,302.93L82.21,303.15L82.33,295.69L82.74,303.97L82.96,302.82L82.97,303.76L83.27,303.97L83.61,297.89L83.72,302.97L83.73,302.17L83.91,303.97L84.33,296.5L84.48,302.8L84.49,302.96L84.63,303.97L85,297.33L85.24,302.26L85.25,300.04L85.38,294.47L85.94,303.96L86,300.58L86.01,300.37L86.4,303.97L86.76,294.02L86.76,299.66L86.77,301.96L86.77,296.46L87.34,303.97L87.52,302.51L87.53,303.24L87.84,304L88.08,298.73L88.28,301.98L88.29,301.49L88.62,299.36L88.68,303.98L89.04,303.3L89.05,303.28L89.42,303.99L89.47,297.93L89.8,302.5L89.81,302.95L90.18,303.97L90.25,296.13L90.56,302.16L90.57,301.47L91.16,299.41L91.25,303.98L91.32,303.65L91.33,302.13L91.59,299.65L92.03,303.98L92.08,303.54L92.09,303.35L92.42,303.98L92.73,298.93L92.84,301.28L92.85,300.89L93.02,303.97L93.21,298.57L93.6,303.33L93.61,302.36L93.66,303.99L93.79,298.49L94.36,301.69L94.37,303.16L94.57,303.99L95.01,296.99L95.12,301.99L95.13,300.83L95.45,303.96L95.77,295.62L95.88,302.86L95.89,302.21L96.4,303.96L96.48,292.81L96.64,300.74L96.65,302.78L96.98,303.97L97.1,294.46L97.4,299.93L97.41,296.07L97.48,303.95L97.66,295L98.16,300.44L98.17,300.42L98.52,295.01L98.82,303.95L98.92,299.13L98.93,301.97L99.18,294.54L99.63,303.96L99.68,295.02L99.69,303.55L99.76,294.77L99.97,303.99L100.44,301.13L100.45,300.11L100.66,303.99L100.74,295.02L101.2,302.34L101.21,299.39L101.67,296.93L101.79,303.97L101.96,302.46L101.97,302.86L102.06,296.81L102.23,303.98L102.72,302.71L102.73,302.43L102.91,303.99L103.16,297.36L103.48,300.07L103.49,302.67L103.75,303.98L104.04,296.55L104.24,302.17L104.25,300.83L104.28,303.96L104.31,293.02L105,298.27L105.01,299.27L105.27,303.92L105.59,294.59L105.76,302.31L105.77,302.12L106.3,303.95L106.5,294.95L106.52,301.39L106.53,298.31L106.57,294.59L106.68,303.94L107.28,301.07L107.29,300.62L107.58,295.14L107.88,303.98L108.04,302.78L108.05,301.39L108.34,297.14L108.49,303.96L108.8,303.04L108.81,302.33L109.23,296.34L109.48,303.99L109.56,301.66L109.57,302.69L110.29,303.96L110.32,297.83L110.32,301.39L110.33,300.98L110.65,303.95L110.77,297.92L111.08,301.96L111.09,301.55L111.11,303.98L111.14,297.24L111.84,302.75L111.85,303.13L112.23,303.98L112.34,298.72L112.6,302.7L112.61,302.51L112.79,298.8L113.19,303.98L113.36,303.45L113.37,303.32L113.68,303.96L114.12,297.36L114.12,302.79L114.13,303.46L114.4,303.99L114.64,296.98L114.88,302.46L114.89,301.72L115.03,295.69L115.36,304L115.64,302.68L115.65,301.67L115.77,297.35L116.28,303.98L116.4,303.65L116.41,303.79L116.84,296.81L117.01,303.97L117.16,301.48L117.17,300.58L117.21,303.95L117.77,297.08L117.92,301.78L117.93,299.97L118.08,303.97L118.17,296.66L118.68,303.11L118.69,302.55L119.28,303.98L119.31,296.03L119.44,302.75L119.45,300.68L119.73,303.98L119.75,297.5L120.2,301.68L120.21,301.31L120.32,296.82L120.48,303.99L120.96,301.37L120.97,298.79L120.98,296.35L121.45,303.98L121.72,301.41L121.73,302.95L122,296.13L122.17,303.98L122.48,301.51L122.49,301.6L122.61,303.96L122.87,296.42L123.24,302.44L123.25,302.28L123.52,294.7L123.63,303.99L124,302.4L124.01,301.86L124.51,303.98L124.53,296.05L124.76,301.74L124.77,299.2L125,297.12L125.13,303.96L125.52,301.8L125.53,301.07L125.53,297.46L125.72,303.99L126.28,303.36L126.29,302.25L126.51,298.93L127.01,303.97L127.04,303.46L127.05,303.88L127.23,303.99L127.45,299.1L127.8,302.85L127.81,302.68L128.01,303.99L128.45,299.67L128.56,301.31L128.57,302.78L128.98,299.06L129.27,303.99L129.32,303.26L129.33,301.99L129.52,298.95L129.95,303.99L130.08,301.36L130.09,302.32L130.44,303.96L130.74,299.12L130.84,303.03L130.85,301.91L130.96,303.97L130.99,300.17L131.6,301.28L131.61,302.89L131.65,303.98L131.7,300.15L132.36,303.42L132.37,302.53L132.99,303.99L133.12,300.09L133.12,301.79L133.13,300.55L133.2,300.35L133.31,304L133.88,303.36L133.89,303.01L134.24,303.99L134.27,300.92L134.64,303.01L134.65,303.28L135.11,301.5L135.16,303.99L135.4,302.84L135.41,302.74L135.57,303.99L135.57,301.77L136.16,303.56L136.17,303.86L136.25,303.99L136.51,301.57L136.92,303.42L136.93,303.59L137.04,302.21L137.09,303.99L137.68,303.06L137.69,303.46L137.9,302.12L138.03,303.99L138.44,303.36L138.45,303.85L138.52,302.18L139.18,304L139.2,303.76L139.21,303.76L139.24,303.99L139.38,302.49L139.96,303.27L139.97,302.96L140.46,303.99L140.71,302.3L140.72,303.39L140.73,303.86L141.08,302.71L141.1,304L141.48,303.48L141.49,303.77L141.49,303.99L141.81,302.76L142.24,303.86L142.25,303.34L142.51,304L142.55,302.82L143,303.79L143.01,303.62L143.01,303.99L143.21,302.73L143.76,303.41L143.77,303.76L143.79,303.99L143.98,302.77L144.52,303.61L144.53,303.42L144.95,302.85L145.13,304L145.28,303.54L145.29,303.68L145.53,304L145.99,302.83L146.04,303.84L146.05,303.78L146.07,303.99L146.3,302.84L146.8,303.77L146.81,303.62L146.88,303.99L147.15,301.82L147.56,303.84L147.57,303.8L147.57,303.99L147.89,302.93L148.32,303.75L148.33,303.75L148.35,304L148.91,302.99L149.08,303.69L149.09,303.96L149.19,304L149.69,303.01L149.84,303.5L149.85,303.57L149.87,304L150.46,302.97L150.6,303.69L150.61,303.53L150.96,304L151.17,303.03L151.36,303.74L151.37,303.65L151.62,304L151.74,302.97L152.12,303.92L152.13,303.88L152.67,304L152.75,302.97L152.88,303.38L152.89,303.56L152.96,304L153.43,302.99L153.64,303.52L153.65,303.81L153.77,303.99L154.34,302.92L154.4,303.52L154.41,303.83L154.75,304L155.09,302.85L155.16,303.76L155.17,303.55L155.28,303.99L155.64,302.92L155.92,303.66L155.93,303.72L156.34,302.79L156.4,304L156.68,303.26L156.69,303.76L157.03,303.99L157.32,302.78L157.44,303.81L157.45,303.48L157.5,303.99L157.74,302.81L158.2,303.32L158.21,303.98L158.35,302.85L158.56,304L158.96,303.56L158.97,303.76L159,304L159.54,302.92L159.72,303.68L159.73,303.54L159.73,304L160.44,302.88L160.48,303.64L160.49,303.74L160.64,302.95L160.91,304L161.24,303.66L161.25,303.91L161.32,304L161.69,302.92L162,303.78L162.01,303.7L162.02,304L162.26,303.03L162.76,303.71L162.77,303.54L162.88,302.98L163.36,304L163.52,303.62L163.53,303.87L163.6,303.99L164.08,303.03L164.28,303.75L164.29,303.81L164.51,304L164.73,303.12L165.04,303.59L165.05,303.66L165.28,304L165.78,303.05L165.8,303.79L165.81,303.89L165.86,302.75L166.41,304L166.56,303.81L166.57,303.63L166.69,302.79L166.69,304L167.32,303.75L167.33,303.71L167.37,303.99L167.53,302.99L168.08,303.78L168.09,303.54L168.24,304L168.42,302.92L168.84,303.7L168.85,303.67L169.28,303.02L169.53,304L169.6,303.92L169.61,303.85L169.66,304L169.94,302.91L170.36,303.53L170.37,303.5L170.46,303.99L170.78,302.85L171.12,303.86L171.13,303.55L171.48,302.92L171.67,304L171.88,303.68L171.89,303.36L171.97,303.99L172.64,302.89L172.64,303.72L172.65,303.58L172.77,303.99L172.86,302.75L173.4,303.85L173.41,303.71L173.41,303.99L173.42,302.81L174.16,303.7L174.17,303.9L174.18,303.99L174.23,302.91L174.92,303.67L174.93,303.69L175,303.99L175.04,302.84L175.68,303.42L175.69,303.8L175.86,302.7L176.02,304L176.44,303.96L176.45,303.61L176.51,303.99L176.74,302.8L177.2,303.71L177.21,303.7L177.55,302.73L177.96,304L177.96,303.58L177.97,303.38L178.15,304L178.72,302.33L178.72,303.51L178.73,303.28L178.75,303.99L179.11,302.58L179.48,303.75L179.49,303.24L179.8,304L180.21,302.47L180.24,303.38L180.25,303.33L180.34,304L180.77,302.47L181,303.35L181.01,303.24L181.11,304L181.62,302.44L181.76,302.81L181.77,303.86L181.86,302.48L182.24,303.99L182.52,303.62L182.53,303.09L182.69,303.99L182.86,302.4L183.28,303.38L183.29,303.55L183.55,304L183.69,302.35L184.04,303.39L184.05,303.26L184.16,303.99L184.67,302.41L184.8,303.35L184.81,303.19L185.24,304L185.38,302.32L185.56,303.73L185.57,303.59L185.7,303.99L185.76,302.33L186.32,303.31L186.33,303.64L186.42,302.06L186.51,303.99L187.08,303.53L187.09,303.74L187.12,302.24L187.19,303.99L187.84,303.03L187.85,303.86L187.97,303.98L188.26,302L188.6,303.69L188.61,303.25L189.04,304L189.24,301.49L189.36,303.88L189.37,303.21L189.62,304L190,302.13L190.12,303.94L190.13,303.17L190.34,302.01L190.72,304L190.88,303.61L190.89,302.73L191.22,302.03L191.23,303.99L191.64,302.98L191.65,303.35L191.78,301.85L192.09,304L192.4,303.97L192.41,303.35L192.54,303.99L192.85,301.8L193.16,303.74L193.17,303.69L193.64,303.99L193.86,301.6L193.92,302.36L193.93,303.53L194.26,303.98L194.44,301.8L194.68,303.14L194.69,303.6L194.99,301.78L195.04,303.98L195.44,303.15L195.45,303.57L195.5,303.98L195.66,301.64L196.2,303.44L196.21,303.22L196.32,303.99L196.53,301.26L196.96,302.99L196.97,301.76L197.12,303.99L197.13,301.69L197.72,303.3L197.73,303.07L197.73,303.99L198.44,301.7L198.48,303.42L198.49,303.25L198.65,301.17L198.65,303.99L199.24,303.2L199.25,303.53L199.37,303.99L199.74,301.47L200,303.36L200.01,303.54L200.06,303.99L200.65,301.76L200.76,303.64L200.77,303.42L200.81,303.99L200.83,301.63L201.52,303.31L201.53,303.21L201.85,301.7L202.23,303.99L202.28,303.42L202.29,303.64L202.58,303.99L202.99,301.32L203.04,302.79L203.05,303.03L203.23,301.83L203.41,303.99L203.8,303.74L203.81,303.35L203.82,303.99L204.06,301.82L204.56,303.21L204.57,302.97L204.68,303.99L204.78,301.87L205.32,303.68L205.33,303.8L205.69,301.92L205.7,303.99L206.08,303.48L206.09,303.35L206.46,304L206.68,301.87L206.84,303.59L206.85,303.76L206.87,303.99L207.34,301.84L207.6,303.49L207.61,302.57L207.63,301.94L208.04,303.99L208.36,303.12L208.37,303.55L208.41,304L208.68,301.93L209.12,303.59L209.13,303.51L209.66,304L209.68,301.91L209.88,303.68L209.89,303.47L210.22,302.1L210.3,304L210.64,302.79L210.65,303.48L210.79,303.99L211.33,301.89L211.4,303.43L211.41,303.5L211.68,301.91L211.85,303.99L212.16,303.37L212.17,303.66L212.73,301.92L212.73,303.99L212.92,303.33L212.93,303.33L213.25,303.99L213.44,302.03L213.68,303.37L213.69,303.45L213.88,303.99L214.28,302.06L214.44,302.87L214.45,303.66L214.53,302.27L214.87,303.99L215.2,303.67L215.21,303.79L215.33,302.04L215.43,304L215.96,303.89L215.97,303.48L216.2,303.99L216.21,302.27L216.72,303.3L216.73,303.63L216.76,304L217.46,302.05L217.48,303.43L217.49,303.56L217.87,304L218.22,302.21L218.24,303.9L218.25,303.64L218.52,302.12L218.98,304L219,303.16L219.01,303.11L219.24,304L219.68,302.15L219.76,303.86L219.77,303.54L220.01,303.99L220.48,302.11L220.52,303.47L220.53,303.43L220.76,303.99L220.76,302.19L221.28,303.19L221.29,303.83L221.35,303.98L221.83,302.17L222.04,303.23L222.05,303.3L222.36,303.99L222.72,302.17L222.8,303.59L222.81,303.7L223.13,303.99L223.18,302.15L223.56,303.5L223.57,303.74L223.58,302.37L224.17,303.99L224.32,303.62L224.33,302.96L224.44,303.99L225.02,302.11L225.08,303.29L225.09,303.34L225.64,302.31L225.66,304L225.84,303.21L225.85,303.4L226,304L226.19,302.32L226.6,303.35L226.61,303.28L226.78,302.14L227,303.99L227.36,303.38L227.37,303.49L227.38,301.74L227.73,304L228.12,303.45L228.13,303.37L228.25,302.33L228.43,303.99L228.88,303.41L228.89,303.4L229.29,304L229.47,302.14L229.64,303.15L229.65,303.52L229.66,302.08L229.85,303.99L230.4,303.2L230.41,303.1L230.45,304L230.88,302.08L231.16,303.48L231.17,303.79L231.47,303.99L231.74,302.19L231.92,303.77L231.93,303.1L232.03,303.99L232.39,302.14L232.68,303.44L232.69,303.36L232.73,303.99L233.08,302.15L233.44,303.42L233.45,303.61L233.68,303.99L233.72,302.06L234.2,303.66L234.21,303.19L234.3,303.99L234.37,302.18L234.96,302.75L234.97,303.54L235.02,304L235.06,302.16L235.72,303.38L235.73,303.23L236.39,304L236.42,301.85L236.48,303.55L236.49,302.79L236.5,303.99L236.79,302.22L237.24,303.35L237.25,303.8L237.35,303.99L237.81,302.26L238,303.32L238.01,303.6L238.02,303.99L238.16,302.37L238.76,303.37L238.77,303.02L238.89,303.99L239.31,302.02L239.52,303.64L239.53,303.71L239.55,302.19L239.59,303.99L240.28,303.27L240.29,303.86L240.57,303.99L240.71,302.31L241.04,303.68L241.05,303.35L241.25,303.99L241.34,302.38L241.8,303.76L241.81,303.95L241.86,303.99L241.87,302.51L242.56,303.66L242.57,303.5L243.16,302.12L243.23,303.99L243.32,303.71L243.33,303.94L243.39,303.99L243.9,302.2L244.08,303.44L244.09,303.59L244.1,302.48L244.16,303.99L244.84,303.38L244.85,303.49L245.01,303.99L245.11,302.54L245.6,303.88L245.61,303.17L245.83,304L246.09,302.59L246.36,303.88L246.37,303.87L246.63,304L247,302.47L247.12,303.83L247.13,303.29L247.24,303.99L247.61,302.4L247.88,303.53L247.89,303.95L248.04,302.39L248.08,303.99L248.64,303.6L248.65,303.21L248.75,303.99L248.86,302.27L249.4,303.67L249.41,303.71L249.53,304L249.61,302.36L250.16,303.25L250.17,303.58L250.31,303.99L250.52,302.42L250.92,303.39L250.93,303.89L250.94,304L251.48,302.39L251.68,303.63L251.69,303.67L251.75,302.46L251.82,303.99L252.44,303.23L252.45,303.61L253.1,302.38L253.13,304L253.2,303.61L253.21,303.26L253.49,302.47L253.52,304L253.96,303.38L253.97,303.67L254.02,303.99L254.68,302.56L254.72,303.36L254.73,303.68L255.04,303.99L255.48,302.31L255.48,303.8L255.49,303.92L255.54,303.99L255.55,302.43L256.24,303.59L256.25,303.93L256.35,304L256.73,302.56L257,303.29L257.01,303.65L257.14,302.34L257.2,303.99L257.76,303.21L257.77,303.81L257.89,302.45L258.2,304L258.52,303.26L258.53,303.66L258.81,303.99L258.87,302.47L259.28,303.38L259.29,303.83L259.85,302.2L259.97,304L260.04,303.59L260.05,303.89L260.09,303.99L260.61,302.67L260.8,303.19L260.81,303.27L260.84,303.99L261.37,302.48L261.56,303.72L261.57,303.58L261.72,302.63L261.76,304L262.32,303.76L262.33,303.78L262.34,303.99L262.75,302.7L263.08,303.33L263.09,303.95L263.09,302.57L263.12,304L263.84,303.58L263.85,303.65L264.09,304L264.32,302.66L264.6,303.75L264.61,303.47L265.19,302.69L265.36,304L265.36,303.65L265.37,303.7L265.51,303.99L265.57,302.89L266.12,303.8L266.13,303.71L266.47,304L266.57,302.72L266.88,303.42L266.89,303.94L266.93,302.82L266.98,303.99L267.64,303.49L267.65,303.61L267.83,302.7L267.87,303.99L268.4,303.63L268.41,303.62L268.43,304L268.73,302.62L269.16,303.87L269.17,303.78L269.43,302.67L269.46,303.99L269.92,303.8L269.93,303.62L270.05,303.99L270.27,302.7L270.68,303.5L270.69,303.8L270.69,303.99L271.28,302.84L271.44,303.44L271.45,303.59L271.5,303.99L271.91,302.9L272.2,303.2L272.21,303.53L272.28,303.99L272.87,302.58L272.96,303.79L272.97,303.74L273.57,304L273.58,302.78L273.72,303.9L273.73,303.64L273.83,302.86L274.01,304L274.48,303.53L274.49,303.7L275.06,304L275.22,302.98L275.24,303.92L275.25,303.74L275.34,304L275.48,302.8L276,303.67L276.01,303.48L276.13,303.99L276.35,302.93L276.76,303.97L276.77,303.73L276.84,303.99L277.25,302.96L277.52,303.4L277.53,303.36L277.54,303.99L278.2,302.97L278.28,303.52L278.29,303.5L278.54,303.05L278.97,304L279.04,303.73L279.05,303.91L279.08,302.96L279.11,303.99L279.8,303.45L279.81,303.75L279.81,303.99L280.47,302.77L280.56,303.71L280.57,303.63L280.67,304L281.13,302.77L281.32,303.76L281.33,303.63L281.55,303.99L281.79,302.92L282.08,303.91L282.09,303.9L282.1,303.99L282.7,302.9L282.84,303.63L282.85,303.74L282.92,304L283.45,302.94L283.6,303.8L283.61,303.85L283.63,304L284.06,302.88L284.36,303.93L284.37,303.53L284.5,303.99L284.81,302.78L285.12,303.78L285.13,303.53L285.57,303.99L285.79,302.91L285.88,303.58L285.89,303.87L286.18,304L286.29,302.87L286.64,303.83L286.65,303.58L286.7,303.06L286.91,304L287.4,303.77L287.41,303.8L287.41,302.99L287.48,304L288.16,303.87L288.17,303.85L288.29,303.99L288.37,303.1L288.92,303.67L288.93,303.87L288.94,304L289.09,302.94L289.68,303.64L289.69,303.6L289.78,304L290.26,303.06L290.44,303.89L290.45,303.84L290.51,304L290.62,302.89L291.2,303.48L291.21,303.93L291.29,304L291.81,302.65L291.96,303.68L291.97,303.25L292.24,304L292.56,303.09L292.72,303.81L292.73,303.46L293.34,304L293.41,303.13L293.48,303.75L293.49,303.63L293.51,303.15L293.59,304L294.24,303.31L294.25,303.61L294.64,303.01L294.95,304L295,303.45L295.01,303.78L295.01,303.99L295.22,303.06L295.76,303.84L295.77,303.69L296.2,303.1L296.4,304L296.52,303.84L296.53,303.85L296.6,302.98L297.01,304L297.28,303.79L297.29,303.81L297.61,304L297.63,303.06L298.04,303.55L298.05,303.53L298.09,304L298.69,303.12L298.8,303.75L298.81,303.83L298.86,303.99L299.47,303.02L299.56,303.69L299.57,303.37L299.64,303.11L299.71,304L300.32,303.75L300.33,303.84L300.65,302.85L300.92,304L301.08,303.65L301.09,303.67L301.09,304L301.79,303.06L301.84,303.47L301.85,303.49L301.91,304L302.42,302.98L302.6,303.93L302.61,303.79L302.66,303.09L302.77,304L303.36,303.61L303.37,303.58L303.47,304L303.91,303L304.12,303.45L304.13,303.9L304.13,303.04L304.42,304L304.88,303.87L304.89,303.92L305.04,304L305.59,303.04L305.64,303.99L305.65,303.33L305.65,303.07L306.11,304L306.4,303.73L306.41,303.87L306.48,304L306.98,303.08L307.16,303.57L307.17,303.8L307.23,304L307.83,303.07L307.92,303.79L307.93,303.77L307.94,303.99L308.16,302.91L308.68,303.38L308.69,303.74L308.8,304L309.32,303.03L309.44,303.61L309.45,303.54L309.55,303.1L309.98,304L310.2,303.86L310.21,303.59L310.24,303.99L310.65,303.02L310.96,303.95L310.97,303.8L311.04,303.09L311.65,304L311.72,303.77L311.73,303.74L311.77,303.99L312.17,303.07L312.48,303.61L312.49,303.47L312.67,304L313.18,303.05L313.24,303.71L313.25,303.78L313.47,304L313.89,302.99L314,303.76L314.01,303.68L314.18,303.04L314.6,304L314.76,303.84L314.77,303.62L314.87,304L315.45,303.07L315.52,303.56L315.53,303.88L315.54,304L315.9,303.01L316.28,303.79L316.29,303.68L316.53,304L316.9,302.99L317.04,303.75L317.05,303.39L317.27,303L317.77,304L317.8,303.77L317.81,303.74L317.83,303.99L318.33,303.1L318.56,303.58L318.57,303.79L318.66,304L319.27,303L319.32,303.69L319.33,303.61L319.45,304L319.57,303.1L320.08,303.54L320.09,303.72L320.1,304L320.24,303.04L320.84,303.55L320.85,303.88L320.86,303.99L321.37,303.06L321.6,303.68L321.61,303.62L321.82,304L321.99,303.18L322.36,303.83L322.37,303.85L322.61,304L323.12,303.15L323.12,303.56L323.13,303.81L323.23,303.13L323.27,304L323.88,303.58L323.89,303.85L323.93,304L324.02,302.96L324.64,303.89L324.65,303.68L324.78,303.16L324.79,304L325.4,303.81L325.41,303.7L325.48,303.23L325.54,304L326.16,303.75L326.17,303.84L326.31,304L326.43,303.17L326.92,303.51L326.93,303.23L327.14,304L327.68,303.84L327.69,303.9L327.78,304L327.87,303.24L328.44,303.81L328.45,303.94L328.63,304L328.89,303.19L329.2,303.7L329.21,303.78L329.42,303.04L329.73,304L329.96,303.66L329.97,303.71L330.08,303.19L330.1,304L330.72,303.78L330.73,303.56L330.75,303.33L330.97,304L331.48,303.66L331.49,303.76L331.58,304L331.66,303.27L332.24,303.86L332.25,303.81L332.28,303.33L332.38,304L333,303.81L333.01,303.7L333.01,303.99L333.26,303.32L333.76,303.79L333.77,303.81L333.77,303.99L334.43,303.33L334.52,303.46L334.53,303.75L334.78,304L335.18,303.34L335.28,303.84L335.29,303.84L335.29,304L336.04,303.29L336.04,303.74L336.05,303.77L336.36,304L336.55,303.3L336.8,303.79L336.81,303.84L336.97,303.34L337.19,304L337.56,303.97L337.57,303.7L338.09,304L338.31,303.31L338.32,303.87L338.33,303.41L338.69,304L339.07,303.3L339.08,303.6L339.09,303.73L339.61,303.24L339.81,304L339.84,303.88L339.85,303.88L339.85,304L340.34,303.25L340.6,303.67L340.61,303.87L341.25,303.18L341.33,304L341.36,303.59L341.37,303.74L341.43,303.3L341.87,304L342.12,303.89L342.13,303.86L342.16,304L342.85,303.37L342.88,303.82L342.89,303.77L343.08,304L343.31,303.32L343.64,303.75L343.65,303.82L343.74,303.36L343.83,304L344.4,303.77L344.41,303.85L344.42,303.99L344.55,303.3L345.16,303.97L345.17,303.81L345.17,303.45L345.18,304L345.92,303.97L345.93,303.9L345.96,304L346.11,303.28L346.68,303.66L346.69,303.87L346.75,304L347,303.33L347.44,303.65L347.45,303.91L347.65,304L348.13,303.33L348.2,303.74L348.21,303.58L348.33,304L348.7,303.36L348.96,303.85L348.97,303.77L349.23,304L349.5,303.32L349.72,303.82L349.73,303.82L349.99,304L350.03,303.35L350.48,303.78L350.49,303.81L350.61,303.37L350.66,304L351.24,303.96L351.25,303.76L351.53,304L351.78,303.31L352,303.92L352.01,303.77L352.04,304L352.6,303.27L352.76,303.72L352.77,303.8L352.81,304L353.28,303.32L353.52,303.92L353.53,303.9L353.94,304L353.99,303.25L354.28,303.67L354.29,303.79L354.29,303.25L354.48,304L355.04,303.73L355.05,303.67L355.16,304L355.46,303.34L355.8,303.81L355.81,303.91L355.85,304L355.9,303.33L356.56,303.74L356.57,303.97L356.68,304L357,303.4L357.32,303.77L357.33,303.93L357.69,303.33L357.71,304L358.08,303.79L358.09,303.64L358.26,304L358.59,303.39L358.84,303.7L358.85,303.91L358.85,304L359.4,303.26L359.6,303.7L359.61,303.84L359.63,303.99L359.67,303.34L360.36,303.84L360.37,303.73L360.37,304L360.54,303.41L361.12,303.83L361.13,303.9L361.15,304L361.56,303.36L361.88,303.91L361.89,303.63L362.01,304L362.62,303.42L362.64,303.93L362.65,303.9L362.89,303.4L363,304L363.4,303.84L363.41,303.96L363.42,304L363.73,303.42L364.16,303.63L364.17,303.7L364.29,304L364.82,303.43L364.92,303.91L364.93,303.83L365.47,304L365.5,303.44L365.68,303.79L365.69,303.7L366,303.44L366.13,304L366.44,303.83L366.45,303.82L366.5,303.45L366.66,304L367.2,303.74L367.21,303.79L367.35,304L367.41,303.44L367.96,303.97L367.97,303.88L367.99,304L368.03,303.53L368.72,303.9L368.73,303.79L368.73,303.49L369.25,304L369.48,303.86L369.49,303.82L369.49,304L370.09,303.45L370.24,303.81L370.25,303.94L370.34,304L370.34,303.54L371,303.79L371.01,303.75L371.01,304L371.26,303.53L371.76,303.94L371.77,303.78L371.77,304L372.47,303.48L372.52,303.84L372.53,303.75L372.56,303.53L372.83,304L373.28,303.9L373.29,303.92L373.37,304L373.63,303.5L374.04,303.77L374.05,303.93L374.21,304L374.62,303.54L374.8,303.86L374.81,303.82L374.85,304L375.27,303.53L375.56,303.94L375.57,303.95L375.62,304L376.27,303.53L376.32,303.92L376.33,303.83L376.38,304L376.77,303.49L377.08,303.86L377.09,303.82L377.09,304L377.52,303.48L377.84,303.78L377.85,303.94L377.92,303.56L377.93,304L378.6,303.91L378.61,303.95L378.65,303.55L378.68,304L379.36,303.84L379.37,303.89L379.41,303.53L379.45,304L380.12,303.95L380.13,303.86L380.17,304L380.48,303.57L380.88,303.9L380.89,303.93L380.99,304L381.25,303.58L381.64,303.91L381.65,303.77L381.72,304L382.4,303.43L382.4,303.98L382.41,303.74L382.47,304L382.82,303.56L383.16,303.93L383.17,303.93L383.35,303.55L383.43,304L383.92,303.88L383.93,303.93L384.25,303.6L384.3,304L384.68,303.92L384.69,303.84L384.73,304L384.8,303.57L385.44,303.91L385.45,303.79L385.48,303.58L385.53,304L386.2,303.9L386.21,303.81L386.21,304L386.52,303.55L386.96,303.85L386.97,303.93L387.13,304L387.52,303.58L387.72,303.94L387.73,303.9L387.76,304L387.99,303.57L388.48,303.9L388.49,303.91L388.52,304L388.81,303.57L389.24,303.79L389.25,303.87L389.34,304L389.77,303.56L390,303.75L390,303.94L390.01,304L390.15,303.6L390.75,303.95L390.76,303.92L390.85,304L391.51,303.6L391.51,303.92L391.52,303.94L391.55,304L392.06,303.58L392.27,303.96L392.28,303.86L392.31,304L392.51,303.57L393.02,303.95L393.02,304L393.21,303.57L393.77,303.83L393.78,303.87L393.82,304L393.9,303.59L394.53,303.79L394.53,303.93L394.62,304L394.66,303.61L395.28,303.94L395.29,303.94L395.32,304L395.65,303.6L396.04,303.86L396.05,303.9L396.25,304L396.71,303.58L396.8,303.89L396.81,303.98L396.83,304L397.35,303.63L397.56,303.8L397.57,303.89L397.58,304L397.59,303.62L398.32,303.85L398.33,303.86L398.34,304L398.37,303.61L399.08,303.74L399.09,303.8L399.09,304L399.41,303.58L399.84,303.9L399.85,303.92L399.93,304L399.99,303.6L400.6,303.99L400.61,303.8L400.61,304L401.18,303.63L401.36,303.91L401.37,303.8L401.44,304L401.59,303.66L402.12,303.83L402.13,303.86L402.24,304L402.52,303.67L402.87,303.92L402.88,303.94L402.97,304L403.27,303.68L403.63,303.97L403.64,303.9L403.74,304L404.29,303.62L404.39,303.84L404.39,303.92L404.54,304L404.86,303.63L405.14,303.99L405.15,303.93L405.17,304L405.84,303.67L405.9,303.89L405.91,303.9L406.05,304L406.18,303.61L406.66,303.86L406.67,303.97L406.77,304L406.94,303.66L407.42,303.9L407.43,303.95L407.53,304L407.85,303.66L408.18,303.98L408.19,303.94L408.31,304L408.43,303.65L408.94,303.85L408.95,303.94L408.95,303.64L408.97,304L409.7,303.97L409.71,303.96L409.81,304L410.42,303.61L410.46,303.96L410.47,303.77L410.51,304L410.81,303.65L411.22,303.82L411.23,303.96L411.24,304L411.84,303.65L411.98,303.95L411.99,303.93L412.02,304L412.57,303.62L412.74,303.89L412.75,303.91L412.75,304L413.39,303.64L413.5,303.91L413.51,303.89L413.57,304L414,303.64L414.26,303.81L414.26,303.98L414.27,304L414.99,303.66L415.01,303.86L415.02,303.84L415.54,303.63L415.72,304L415.77,303.98L415.77,303.8L415.82,304L416.16,303.63L416.52,303.86L416.53,303.84L416.53,304L417.17,303.63L417.28,303.88L417.29,303.83L417.31,304L417.51,303.68L418.04,303.93L418.05,303.89L418.06,304L418.61,303.64L418.79,303.85L418.8,303.95L418.84,304L419.12,303.71L419.54,303.93L419.55,303.96L419.57,304L419.74,303.73L420.3,303.97L420.31,303.9L420.32,304L420.68,303.63L421.06,303.82L421.06,303.96L421.08,304L421.73,303.66L421.81,303.97L421.82,303.94L421.88,304L421.91,303.66L422.57,303.95L422.58,303.85L422.72,303.69L423.36,303.99L423.37,303.83L423.37,303.77L423.47,303.7L423.6,304L424.12,303.98L424.13,303.93L424.16,304L424.48,303.69L424.88,303.91L424.89,303.95L424.98,303.65L424.98,304L425.64,303.91L425.65,303.95L425.66,304L426.18,303.67L426.4,303.9L426.4,303.97L426.43,304L426.84,303.67L427.15,303.9L427.16,303.89L427.22,304L427.63,303.69L427.91,303.92L427.92,303.87L428.05,303.76L428.8,303.99L428.81,303.92L428.81,303.73L428.89,304L429.19,303.72L429.56,303.97L429.57,303.91L429.64,304L429.86,303.7L430.31,303.96L430.32,303.99L430.34,304L430.73,303.72L431.07,303.92L431.08,303.91L431.16,303.99L431.86,303.78L431.9,303.93L431.9,304L431.93,303.74L432.65,303.89L432.66,303.93L432.69,303.99L433.38,303.73L433.42,303.92L433.42,303.98L433.44,304L433.52,303.68L434.17,303.9L434.18,303.93L434.18,304L434.68,303.75L434.93,303.98L434.94,303.91L435.03,304L435.79,303.79L435.8,303.95L435.8,303.99L435.81,304L436.27,303.7L436.55,303.91L436.56,303.98L436.63,304L436.92,303.7L437.31,303.96L437.32,303.95L437.38,304L438.01,303.78L438.09,303.92L438.09,303.96L438.12,304L438.78,303.76L438.84,303.88L438.84,304L439.47,303.74L439.59,303.91L439.6,303.94L439.68,304L440.1,303.74L440.35,303.94L440.35,303.99L440.42,304L440.51,303.73L441.1,303.99L441.11,304L441.72,303.73L441.86,303.88L441.86,304L442.2,303.73L442.61,303.96L442.61,303.97L442.62,304L443.03,303.75L443.36,303.93L443.37,303.91L444.48,303.78L444.51,303.95L444.51,303.99L444.52,304L445.2,303.71L445.26,303.96L445.27,303.91L446.24,303.81L446.26,303.91L446.26,303.99L446.29,304L446.51,303.74L447.01,303.93L447.02,303.89L448.08,303.98L448.08,303.98L448.08,303.76L448.09,304L448.83,303.92L448.84,303.92L448.94,304L449.7,303.81L449.71,303.87L449.71,303.99L450.48,303.82L450.48,303.9L450.49,303.98L450.51,304L450.65,303.77L451.24,303.98L451.25,303.96L452.06,303.83L452.08,303.94L452.08,303.98L452.88,303.83L452.89,303.93L452.89,303.99L452.92,304L453.24,303.77L453.65,303.9L453.65,303.97L453.65,304L454.03,303.76L454.4,303.9L454.41,303.86L455.22,303.99L455.22,303.88L455.22,303.84L455.28,304L455.68,303.78L455.97,303.9L455.98,303.92L457.09,303.81L457.11,303.9L457.11,303.99L457.14,304L457.85,303.81L457.86,303.93L457.87,303.97L458.66,303.81L458.72,303.87L458.72,304L458.76,303.76L459.47,303.86L459.48,303.96L460.43,303.85L460.44,303.95L460.44,304L461.18,303.83L461.19,303.94L461.2,303.95L462.08,303.82L462.09,303.97L462.09,303.99L462.11,304L462.84,303.81L462.84,303.93L462.85,303.94L463.86,303.85L463.87,303.96L463.87,303.99L464.64,303.8L464.65,303.93L464.65,303.99L464.66,304L465.31,303.79L465.4,303.94L465.41,303.96L466.31,303.85L466.31,303.97L466.32,303.98L466.37,304L466.37,303.79L467.07,303.94L467.08,303.95L468.4,303.83L468.42,303.91L468.42,304L469.13,303.83L469.19,303.96L469.19,303.98L470.09,303.84L470.1,303.93L470.1,303.97L470.14,304L470.2,303.79L470.85,303.94L470.86,303.93L472.19,303.84L472.2,303.87L472.2,303.99L472.21,304L472.54,303.81L472.95,303.9L472.96,303.97L473.83,303.85L473.85,303.93L473.86,303.99L473.86,304L474.25,303.81L474.61,303.96L474.62,303.94L475.78,303.85L475.79,303.96L475.79,303.99L475.82,304L476.48,303.83L476.55,303.94L476.55,303.97L477.58,303.85L477.59,303.97L477.59,304L478.34,303.85L478.38,303.93L478.38,303.99L479.24,303.86L479.25,303.91L479.25,303.99L480.1,303.85L480.13,303.96L480.13,304L480.77,303.82L480.88,303.98L480.89,303.94L482.6,303.85L482.62,303.95L482.62,303.99L483.54,303.87L483.54,303.95L483.54,303.98L484.49,303.85L484.51,303.95L484.51,304L485.42,303.88L485.43,303.96L485.43,303.99L486.6,303.85L486.61,303.95L486.61,303.99L487.8,303.87L487.8,303.99L487.81,304L488.62,303.86L488.65,303.98L488.65,304L489.21,303.84L489.41,303.96L489.41,303.98L490.38,303.87L490.38,303.97L490.39,303.99L491.44,303.85L491.45,303.95L491.45,304L492.14,303.85L492.21,303.97L492.21,304L493.06,303.86L493.07,303.94L493.07,303.99L494.11,303.87L494.12,303.96L494.12,304L494.91,303.81L494.92,303.94L494.92,303.98L496.13,303.87L496.15,303.97L496.15,304L497.08,303.88L497.1,303.96L497.1,303.99L498.3,303.89L498.31,303.95L498.31,304L499.12,303.86L499.13,303.95L499.13,304L499.92,303.88L499.94,303.99L499.94,304L500.91,303.89L500.92,303.94L500.92,304L501.88,303.84L501.91,303.97L501.91,303.99L502.72,303.87L502.75,303.98L502.75,303.99L503.94,303.86L503.95,303.96L503.95,304L504.65,303.86L504.7,304L504.71,303.98L505.85,303.89L505.86,303.97L505.86,304L506.83,303.89L506.84,303.96L506.84,304L507.91,303.89L507.91,303.95L507.91,303.99L508.96,303.86L508.97,303.97L508.97,304L509.75,303.87L509.79,303.97L509.79,304L510,303.88L510,303.93" style="vector-effect: none; fill: none; stroke: rgb(0, 0, 0); stroke-opacity: 1; stroke-width: 2px; opacity: 1;"/></g><g class="points"/><g class="text"/></g><g class="trace scatter trace3d7ae9" style="stroke-miterlimit: 2; opacity: 1;"><g class="fills"/><g class="errorbars"/><g class="lines"/><g class="points"><path class="point" transform="translate(45.41,274.08)" d="M3,0A3,3 0 1,1 0,-3A3,3 0 0,1 3,0ZM0,0.5L0.5,0L0,-0.5L-0.5,0Z" style="opacity: 1; stroke-width: 0px; fill: rgb(255, 0, 0); fill-opacity: 1;"/><path class="point" transform="translate(58.89,273.8)" d="M3,0A3,3 0 1,1 0,-3A3,3 0 0,1 3,0ZM0,0.5L0.5,0L0,-0.5L-0.5,0Z" style="opacity: 1; stroke-width: 0px; fill: rgb(255, 0, 0); fill-opacity: 1;"/><path class="point" transform="translate(66.79,271.71)" d="M3,0A3,3 0 1,1 0,-3A3,3 0 0,1 3,0ZM0,0.5L0.5,0L0,-0.5L-0.5,0Z" style="opacity: 1; stroke-width: 0px; fill: rgb(255, 0, 0); fill-opacity: 1;"/><path class="point" transform="translate(54.09,270.21)" d="M3,0A3,3 0 1,1 0,-3A3,3 0 0,1 3,0ZM0,0.5L0.5,0L0,-0.5L-0.5,0Z" style="opacity: 1; stroke-width: 0px; fill: rgb(255, 0, 0); fill-opacity: 1;"/><path class="point" transform="translate(48.8,253.28)" d="M3,0A3,3 0 1,1 0,-3A3,3 0 0,1 3,0ZM0,0.5L0.5,0L0,-0.5L-0.5,0Z" style="opacity: 1; stroke-width: 0px; fill: rgb(255, 0, 0); fill-opacity: 1;"/><path class="point" transform="translate(47.53,242.25)" d="M3,0A3,3 0 1,1 0,-3A3,3 0 0,1 3,0ZM0,0.5L0.5,0L0,-0.5L-0.5,0Z" style="opacity: 1; stroke-width: 0px; fill: rgb(255, 0, 0); fill-opacity: 1;"/><path class="point" transform="translate(57.15,263.99)" d="M3,0A3,3 0 1,1 0,-3A3,3 0 0,1 3,0ZM0,0.5L0.5,0L0,-0.5L-0.5,0Z" style="opacity: 1; stroke-width: 0px; fill: rgb(255, 0, 0); fill-opacity: 1;"/><path class="point" transform="translate(30.68,84.94)" d="M3,0A3,3 0 1,1 0,-3A3,3 0 0,1 3,0ZM0,0.5L0.5,0L0,-0.5L-0.5,0Z" style="opacity: 1; stroke-width: 0px; fill: rgb(255, 0, 0); fill-opacity: 1;"/><path class="point" transform="translate(42.7,218.57)" d="M3,0A3,3 0 1,1 0,-3A3,3 0 0,1 3,0ZM0,0.5L0.5,0L0,-0.5L-0.5,0Z" style="opacity: 1; stroke-width: 0px; fill: rgb(255, 0, 0); fill-opacity: 1;"/><path class="point" transform="translate(41.12,233.77)" d="M3,0A3,3 0 1,1 0,-3A3,3 0 0,1 3,0ZM0,0.5L0.5,0L0,-0.5L-0.5,0Z" style="opacity: 1; stroke-width: 0px; fill: rgb(255, 0, 0); fill-opacity: 1;"/><path class="point" transform="translate(39.71,256.02)" d="M3,0A3,3 0 1,1 0,-3A3,3 0 0,1 3,0ZM0,0.5L0.5,0L0,-0.5L-0.5,0Z" style="opacity: 1; stroke-width: 0px; fill: rgb(255, 0, 0); fill-opacity: 1;"/><path class="point" transform="translate(37.94,147.43)" d="M3,0A3,3 0 1,1 0,-3A3,3 0 0,1 3,0ZM0,0.5L0.5,0L0,-0.5L-0.5,0Z" style="opacity: 1; stroke-width: 0px; fill: rgb(255, 0, 0); fill-opacity: 1;"/><path class="point" transform="translate(35.48,97.39)" d="M3,0A3,3 0 1,1 0,-3A3,3 0 0,1 3,0ZM0,0.5L0.5,0L0,-0.5L-0.5,0Z" style="opacity: 1; stroke-width: 0px; fill: rgb(255, 0, 0); fill-opacity: 1;"/><path class="point" transform="translate(33.08,19.75)" d="M3,0A3,3 0 1,1 0,-3A3,3 0 0,1 3,0ZM0,0.5L0.5,0L0,-0.5L-0.5,0Z" style="opacity: 1; stroke-width: 0px; fill: rgb(255, 0, 0); fill-opacity: 1;"/><path class="point" transform="translate(29.25,221.26)" d="M3,0A3,3 0 1,1 0,-3A3,3 0 0,1 3,0ZM0,0.5L0.5,0L0,-0.5L-0.5,0Z" style="opacity: 1; stroke-width: 0px; fill: rgb(255, 0, 0); fill-opacity: 1;"/></g><g class="text"/></g></g></g></g><path class="xlines-above crisp" d="M0,0" style="fill: none;"/><path class="ylines-above crisp" d="M0,0" style="fill: none;"/><g class="overlines-above"/><g class="xaxislayer-above"><g class="xtick"><text text-anchor="middle" x="0" y="433" transform="translate(108.27,0)" style="font-family: 'Open Sans', verdana, arial, sans-serif; font-size: 12px; fill: rgb(42, 63, 95); fill-opacity: 1; white-space: pre; opacity: 1;">0</text></g><g class="xtick"><text text-anchor="middle" x="0" y="433" style="font-family: 'Open Sans', verdana, arial, sans-serif; font-size: 12px; fill: rgb(42, 63, 95); fill-opacity: 1; white-space: pre; opacity: 1;" transform="translate(217.5,0)">5k</text></g><g class="xtick"><text text-anchor="middle" x="0" y="433" style="font-family: 'Open Sans', verdana, arial, sans-serif; font-size: 12px; fill: rgb(42, 63, 95); fill-opacity: 1; white-space: pre; opacity: 1;" transform="translate(326.74,0)">10k</text></g><g class="xtick"><text text-anchor="middle" x="0" y="433" style="font-family: 'Open Sans', verdana, arial, sans-serif; font-size: 12px; fill: rgb(42, 63, 95); fill-opacity: 1; white-space: pre; opacity: 1;" transform="translate(435.98,0)">15k</text></g><g class="xtick"><text text-anchor="middle" x="0" y="433" style="font-family: 'Open Sans', verdana, arial, sans-serif; font-size: 12px; fill: rgb(42, 63, 95); fill-opacity: 1; white-space: pre; opacity: 1;" transform="translate(545.21,0)">20k</text></g></g><g class="yaxislayer-above"><g class="ytick"><text text-anchor="end" x="79" y="4.199999999999999" transform="translate(0,404)" style="font-family: 'Open Sans', verdana, arial, sans-serif; font-size: 12px; fill: rgb(42, 63, 95); fill-opacity: 1; white-space: pre; opacity: 1;">0</text></g><g class="ytick"><text text-anchor="end" x="79" y="4.199999999999999" style="font-family: 'Open Sans', verdana, arial, sans-serif; font-size: 12px; fill: rgb(42, 63, 95); fill-opacity: 1; white-space: pre; opacity: 1;" transform="translate(0,353.41999999999996)">0.2</text></g><g class="ytick"><text text-anchor="end" x="79" y="4.199999999999999" style="font-family: 'Open Sans', verdana, arial, sans-serif; font-size: 12px; fill: rgb(42, 63, 95); fill-opacity: 1; white-space: pre; opacity: 1;" transform="translate(0,302.84000000000003)">0.4</text></g><g class="ytick"><text text-anchor="end" x="79" y="4.199999999999999" style="font-family: 'Open Sans', verdana, arial, sans-serif; font-size: 12px; fill: rgb(42, 63, 95); fill-opacity: 1; white-space: pre; opacity: 1;" transform="translate(0,252.25)">0.6</text></g><g class="ytick"><text text-anchor="end" x="79" y="4.199999999999999" style="font-family: 'Open Sans', verdana, arial, sans-serif; font-size: 12px; fill: rgb(42, 63, 95); fill-opacity: 1; white-space: pre; opacity: 1;" transform="translate(0,201.67000000000002)">0.8</text></g><g class="ytick"><text text-anchor="end" x="79" y="4.199999999999999" style="font-family: 'Open Sans', verdana, arial, sans-serif; font-size: 12px; fill: rgb(42, 63, 95); fill-opacity: 1; white-space: pre; opacity: 1;" transform="translate(0,151.09)">1</text></g><g class="ytick"><text text-anchor="end" x="79" y="4.199999999999999" style="font-family: 'Open Sans', verdana, arial, sans-serif; font-size: 12px; fill: rgb(42, 63, 95); fill-opacity: 1; white-space: pre; opacity: 1;" transform="translate(0,100.51)">1.2</text></g></g><g class="overaxes-above"/></g></g><g class="polarlayer"/><g class="smithlayer"/><g class="ternarylayer"/><g class="geolayer"/><g class="funnelarealayer"/><g class="pielayer"/><g class="iciclelayer"/><g class="treemaplayer"/><g class="sunburstlayer"/><g class="glimages"/><defs id="topdefs-88dff0"><g class="clips"/><clipPath id="legend88dff0"><rect width="88" height="48" x="0" y="0"/></clipPath></defs><g class="layer-above"><g class="imagelayer"/><g class="shapelayer"/></g><g class="infolayer"><g class="legend" pointer-events="all" transform="translate(600.2,100)"><rect class="bg" shape-rendering="crispEdges" width="88" height="48" x="0" y="0" style="stroke: rgb(68, 68, 68); stroke-opacity: 1; fill: rgb(255, 255, 255); fill-opacity: 1; stroke-width: 0px;"/><g class="scrollbox" transform="" clip-path="url(#legend88dff0)"><g class="groups"><g class="traces" transform="translate(0,14.5)" style="opacity: 1;"><text class="legendtext" text-anchor="start" x="40" y="4.680000000000001" style="font-family: 'Open Sans', verdana, arial, sans-serif; font-size: 12px; fill: rgb(42, 63, 95); fill-opacity: 1; white-space: pre;">FFT</text><g class="layers" style="opacity: 0.5;"><g class="legendfill"/><g class="legendlines"><path class="js-line" d="M5,0h30" style="fill: none; stroke: rgb(0, 0, 0); stroke-opacity: 1; stroke-width: 2px;"/></g><g class="legendsymbols"><g class="legendpoints"/></g></g><rect class="legendtoggle" x="0" y="-9.5" width="82.515625" height="19" style="fill: rgb(0, 0, 0); fill-opacity: 0;"/></g><g class="traces" transform="translate(0,33.5)" style="opacity: 1;"><text class="legendtext" text-anchor="start" x="40" y="4.680000000000001" style="font-family: 'Open Sans', verdana, arial, sans-serif; font-size: 12px; fill: rgb(42, 63, 95); fill-opacity: 1; white-space: pre;">15 Pics</text><g class="layers" style="opacity: 1;"><g class="legendfill"/><g class="legendlines"/><g class="legendsymbols"><g class="legendpoints"><path class="scatterpts" transform="translate(20,0)" d="M3,0A3,3 0 1,1 0,-3A3,3 0 0,1 3,0ZM0,0.5L0.5,0L0,-0.5L-0.5,0Z" style="opacity: 1; stroke-width: 0px; fill: rgb(255, 0, 0); fill-opacity: 1;"/></g></g></g><rect class="legendtoggle" x="0" y="-9.5" width="82.515625" height="19" style="fill: rgb(0, 0, 0); fill-opacity: 0;"/></g></g></g><rect class="scrollbar" rx="20" ry="3" width="0" height="0" x="0" y="0" style="fill: rgb(128, 139, 164); fill-opacity: 1;"/></g><g class="g-gtitle"><text class="gtitle" x="35" y="50" text-anchor="start" dy="0em" style="opacity: 1; font-family: 'Open Sans', verdana, arial, sans-serif; font-size: 17px; fill: rgb(42, 63, 95); fill-opacity: 1; white-space: pre;">FFT</text></g><g class="g-xtitle"><text class="xtitle" x="335" y="459.8" text-anchor="middle" style="opacity: 1; font-family: 'Open Sans', verdana, arial, sans-serif; font-size: 14px; fill: rgb(42, 63, 95); fill-opacity: 1; white-space: pre;">Frquence (Hz)</text></g><g class="g-ytitle"><text class="ytitle" transform="rotate(-90,39.975,260)" x="39.975" y="260" text-anchor="middle" style="opacity: 1; font-family: 'Open Sans', verdana, arial, sans-serif; font-size: 14px; fill: rgb(42, 63, 95); fill-opacity: 1; white-space: pre;">Amplitude</text></g></g></svg>