<svg class="main-svg" xmlns="http://www.w3.org/2000/svg" xmlns:xlink="http://www.w3.org/1999/xlink" width="700" height="500" style="" viewBox="0 0 700 500"><rect x="0" y="0" width="700" height="500" style="fill: rgb(255, 255, 255); fill-opacity: 1;"/><defs id="defs-3386d1"><g class="clips"><clipPath id="clip3386d1xyplot" class="plotclip"><rect width="540" height="320"/></clipPath><clipPath class="axesclip" id="clip3386d1x"><rect x="80" y="0" width="540" height="500"/></clipPath><clipPath class="axesclip" id="clip3386d1y"><rect x="0" y="100" width="700" height="320"/></clipPath><clipPath class="axesclip" id="clip3386d1xy"><rect x="80" y="100" width="540" height="320"/></clipPath></g><g class="gradients"/><g class="patterns"/></defs><g class="bglayer"><rect class="bg" x="80" y="100" width="540" height="320" style="fill: rgb(229, 236, 246); fill-opacity: 1; stroke-width: 0;"/></g><g class="layer-below"><g class="imagelayer"/><g class="shapelayer"/></g><g class="cartesianlayer"><g class="subplot xy"><g class="layer-subplot"><g class="shapelayer"/><g class="imagelayer"/></g><g class="minor-gridlayer"><g class="x"><path class="xgrid crisp" transform="translate(104.49,0)" d="M0,100v320" style="stroke: rgb(128, 128, 128); stroke-opacity: 1; stroke-dasharray: 3px, 3px; stroke-width: 1px;"/><path class="xgrid crisp" transform="translate(128.98,0)" d="M0,100v320" style="stroke: rgb(128, 128, 128); stroke-opacity: 1; stroke-dasharray: 3px, 3px; stroke-width: 1px;"/><path class="xgrid crisp" transform="translate(153.47,0)" d="M0,100v320" style="stroke: rgb(128, 128, 128); stroke-opacity: 1; stroke-dasharray: 3px, 3px; stroke-width: 1px;"/><path class="xgrid crisp" transform="translate(177.95999999999998,0)" d="M0,100v320" style="stroke: rgb(128, 128, 128); stroke-opacity: 1; stroke-dasharray: 3px, 3px; stroke-width: 1px;"/><path class="xgrid crisp" transform="translate(226.94,0)" d="M0,100v320" style="stroke: rgb(128, 128, 128); stroke-opacity: 1; stroke-dasharray: 3px, 3px; stroke-width: 1px;"/><path class="xgrid crisp" transform="translate(251.43,0)" d="M0,100v320" style="stroke: rgb(128, 128, 128); stroke-opacity: 1; stroke-dasharray: 3px, 3px; stroke-width: 1px;"/><path class="xgrid crisp" transform="translate(275.91999999999996,0)" d="M0,100v320" style="stroke: rgb(128, 128, 128); stroke-opacity: 1; stroke-dasharray: 3px, 3px; stroke-width: 1px;"/><path class="xgrid crisp" transform="translate(300.40999999999997,0)" d="M0,100v320" style="stroke: rgb(128, 128, 128); stroke-opacity: 1; stroke-dasharray: 3px, 3px; stroke-width: 1px;"/><path class="xgrid crisp" transform="translate(349.39,0)" d="M0,100v320" style="stroke: rgb(128, 128, 128); stroke-opacity: 1; stroke-dasharray: 3px, 3px; stroke-width: 1px;"/><path class="xgrid crisp" transform="translate(373.88,0)" d="M0,100v320" style="stroke: rgb(128, 128, 128); stroke-opacity: 1; stroke-dasharray: 3px, 3px; stroke-width: 1px;"/><path class="xgrid crisp" transform="translate(398.37,0)" d="M0,100v320" style="stroke: rgb(128, 128, 128); stroke-opacity: 1; stroke-dasharray: 3px, 3px; stroke-width: 1px;"/><path class="xgrid crisp" transform="translate(422.86,0)" d="M0,100v320" style="stroke: rgb(128, 128, 128); stroke-opacity: 1; stroke-dasharray: 3px, 3px; stroke-width: 1px;"/><path class="xgrid crisp" transform="translate(471.84,0)" d="M0,100v320" style="stroke: rgb(128, 128, 128); stroke-opacity: 1; stroke-dasharray: 3px, 3px; stroke-width: 1px;"/><path class="xgrid crisp" transform="translate(496.33,0)" d="M0,100v320" style="stroke: rgb(128, 128, 128); stroke-opacity: 1; stroke-dasharray: 3px, 3px; stroke-width: 1px;"/><path class="xgrid crisp" transform="translate(520.8199999999999,0)" d="M0,100v320" style="stroke: rgb(128, 128, 128); stroke-opacity: 1; stroke-dasharray: 3px, 3px; stroke-width: 1px;"/><path class="xgrid crisp" transform="translate(545.31,0)" d="M0,100v320" style="stroke: rgb(128, 128, 128); stroke-opacity: 1; stroke-dasharray: 3px, 3px; stroke-width: 1px;"/><path class="xgrid crisp" transform="translate(594.29,0)" d="M0,100v320" style="stroke: rgb(128, 128, 128); stroke-opacity: 1; stroke-dasharray: 3px, 3px; stroke-width: 1px;"/><path class="xgrid crisp" transform="translate(618.78,0)" d="M0,100v320" style="stroke: rgb(128, 128, 128); stroke-opacity: 1; stroke-dasharray: 3px, 3px; stroke-width: 1px;"/></g><g class="y"><path class="ygrid crisp" transform="translate(0,416.81)" d="M80,0h540" style="stroke: rgb(128, 128, 128); stroke-opacity: 1; stroke-dasharray: 3px, 3px; stroke-width: 1px;"/><path class="ygrid crisp" transform="translate(0,391.19)" d="M80,0h540" style="stroke: rgb(128, 128, 128); stroke-opacity: 1; stroke-dasharray: 3px, 3px; stroke-width: 1px;"/><path class="ygrid crisp" transform="translate(0,378.38)" d="M80,0h540" style="stroke: rgb(128, 128, 128); stroke-opacity: 1; stroke-dasharray: 3px, 3px; stroke-width: 1px;"/><path class="ygrid crisp" transform="translate(0,365.56)" d="M80,0h540" style="stroke: rgb(128, 128, 128); stroke-opacity: 1; stroke-dasharray: 3px, 3px; stroke-width: 1px;"/><path class="ygrid crisp" transform="translate(0,339.94)" d="M80,0h540" style="stroke: rgb(128, 128, 128); stroke-opacity: 1; stroke-dasharray: 3px, 3px; stroke-width: 1px;"/><path class="ygrid crisp" transform="translate(0,327.13)" d="M80,0h540" style="stroke: rgb(128, 128, 128); stroke-opacity: 1; stroke-dasharray: 3px, 3px; stroke-width: 1px;"/><path class="ygrid crisp" transform="translate(0,314.31)" d="M80,0h540" style="stroke: rgb(128, 128, 128); stroke-opacity: 1; stroke-dasharray: 3px, 3px; stroke-width: 1px;"/><path class="ygrid crisp" transform="translate(0,288.69)" d="M80,0h540" style="stroke: rgb(128, 128, 128); stroke-opacity: 1; stroke-dasharray: 3px, 3px; stroke-width: 1px;"/><path class="ygrid crisp" transform="translate(0,275.88)" d="M80,0h540" style="stroke: rgb(128, 128, 128); stroke-opacity: 1; stroke-dasharray: 3px, 3px; stroke-width: 1px;"/><path class="ygrid crisp" transform="translate(0,263.06)" d="M80,0h540" style="stroke: rgb(128, 128, 128); stroke-opacity: 1; stroke-dasharray: 3px, 3px; stroke-width: 1px;"/><path class="ygrid crisp" transform="translate(0,237.44)" d="M80,0h540" style="stroke: rgb(128, 128, 128); stroke-opacity: 1; stroke-dasharray: 3px, 3px; stroke-width: 1px;"/><path class="ygrid crisp" transform="translate(0,224.63)" d="M80,0h540" style="stroke: rgb(128, 128, 128); stroke-opacity: 1; stroke-dasharray: 3px, 3px; stroke-width: 1px;"/><path class="ygrid crisp" transform="translate(0,211.82)" d="M80,0h540" style="stroke: rgb(128, 128, 128); stroke-opacity: 1; stroke-dasharray: 3px, 3px; stroke-width: 1px;"/><path class="ygrid crisp" transform="translate(0,186.19)" d="M80,0h540" style="stroke: rgb(128, 128, 128); stroke-opacity: 1; stroke-dasharray: 3px, 3px; stroke-width: 1px;"/><path class="ygrid crisp" transform="translate(0,173.38)" d="M80,0h540" style="stroke: rgb(128, 128, 128); stroke-opacity: 1; stroke-dasharray: 3px, 3px; stroke-width: 1px;"/><path class="ygrid crisp" transform="translate(0,160.57)" d="M80,0h540" style="stroke: rgb(128, 128, 128); stroke-opacity: 1; stroke-dasharray: 3px, 3px; stroke-width: 1px;"/><path class="ygrid crisp" transform="translate(0,134.94)" d="M80,0h540" style="stroke: rgb(128, 128, 128); stroke-opacity: 1; stroke-dasharray: 3px, 3px; stroke-width: 1px;"/><path class="ygrid crisp" transform="translate(0,122.13)" d="M80,0h540" style="stroke: rgb(128, 128, 128); stroke-opacity: 1; stroke-dasharray: 3px, 3px; stroke-width: 1px;"/><path class="ygrid crisp" transform="translate(0,109.32)" d="M80,0h540" style="stroke: rgb(128, 128, 128); stroke-opacity: 1; stroke-dasharray: 3px, 3px; stroke-width: 1px;"/></g></g><g class="gridlayer"><g class="x"><path class="xgrid crisp" transform="translate(202.45,0)" d="M0,100v320" style="stroke: rgb(0, 0, 0); stroke-opacity: 1; stroke-width: 1px;"/><path class="xgrid crisp" transform="translate(324.9,0)" d="M0,100v320" style="stroke: rgb(0, 0, 0); stroke-opacity: 1; stroke-width: 1px;"/><path class="xgrid crisp" transform="translate(447.35,0)" d="M0,100v320" style="stroke: rgb(0, 0, 0); stroke-opacity: 1; stroke-width: 1px;"/><path class="xgrid crisp" transform="translate(569.8,0)" d="M0,100v320" style="stroke: rgb(0, 0, 0); stroke-opacity: 1; stroke-width: 1px;"/></g><g class="y"><path class="ygrid crisp" transform="translate(0,352.75)" d="M80,0h540" style="stroke: rgb(0, 0, 0); stroke-opacity: 1; stroke-width: 1px;"/><path class="ygrid crisp" transform="translate(0,301.5)" d="M80,0h540" style="stroke: rgb(0, 0, 0); stroke-opacity: 1; stroke-width: 1px;"/><path class="ygrid crisp" transform="translate(0,250.25)" d="M80,0h540" style="stroke: rgb(0, 0, 0); stroke-opacity: 1; stroke-width: 1px;"/><path class="ygrid crisp" transform="translate(0,199)" d="M80,0h540" style="stroke: rgb(0, 0, 0); stroke-opacity: 1; stroke-width: 1px;"/><path class="ygrid crisp" transform="translate(0,147.75)" d="M80,0h540" style="stroke: rgb(0, 0, 0); stroke-opacity: 1; stroke-width: 1px;"/></g></g><g class="zerolinelayer"><path class="yzl zl crisp" transform="translate(0,404)" d="M80,0h540" style="stroke: rgb(255, 255, 255); stroke-opacity: 1; stroke-width: 2px;"/></g><g class="layer-between"><g class="shapelayer"/><g class="imagelayer"/></g><path class="xlines-below"/><path class="ylines-below"/><g class="overlines-below"/><g class="xaxislayer-below"/><g class="yaxislayer-below"/><g class="overaxes-below"/><g class="overplot"><g class="xy" transform="translate(80,100)" clip-path="url(#clip3386d1xyplot)"><g class="scatterlayer mlayer"><g class="trace scatter trace7233ab" style="stroke-miterlimit: 2; opacity: 0.5;"><g class="fills"/><g class="errorbars"/><g class="lines"><path class="js-line" d="M0,303.03L0.02,303.97L0.55,268.31L0.75,300.38L0.76,300.58L0.77,303.71L1.1,220.17L1.51,286.94L1.52,284.99L1.71,303.8L2.15,219.96L2.27,289.86L2.28,293.69L2.46,303.86L2.7,82.05L3.03,301.58L3.04,280.7L3.12,303.69L3.58,128.12L3.79,285.42L3.8,289.14L4.02,136.55L4.55,303.89L4.55,298.2L4.56,298.53L4.68,303.84L4.82,220.06L5.31,289.74L5.32,285.94L5.4,16L5.55,303.74L6.07,302.24L6.08,273.84L6.17,303.85L6.43,211.11L6.83,270.79L6.84,280.22L6.87,303.6L7.2,137.74L7.59,292.46L7.6,298.03L7.73,303.9L8.08,94.66L8.35,285L8.36,265.52L8.57,158.34L8.95,303.93L9.11,298.87L9.12,295.94L9.12,303.87L9.64,236.68L9.87,285.53L9.88,275.43L10.14,250.41L10.18,303.86L10.63,300.78L10.64,298.58L10.84,145.36L10.94,303.67L11.39,288.17L11.4,268.43L11.43,215.97L11.9,303.9L12.15,294.75L12.16,289.49L12.6,303.95L12.82,255.39L12.91,301.19L12.92,300.56L13.11,303.89L13.59,254.71L13.67,286.52L13.68,297.87L14.1,303.88L14.4,232.84L14.43,280.3L14.44,289.61L14.48,240.43L15.18,303.96L15.19,293.09L15.2,303.9L15.74,303.98L15.89,280.46L15.95,300.78L15.96,295.59L16.18,217.45L16.61,303.85L16.71,301.51L16.72,295.54L17.13,231.21L17.21,303.87L17.47,301.33L17.48,289.83L17.54,303.94L18.01,282.61L18.23,299.14L18.24,301.65L18.43,303.95L18.88,275.86L18.99,298.36L19,300.94L19.22,273.68L19.56,303.88L19.75,302.14L19.76,301.11L20.01,278.87L20.31,303.92L20.51,291.41L20.52,303.21L21.26,303.93L21.27,270.78L21.27,289.73L21.28,292.69L21.29,303.86L21.6,241.44L22.03,290.99L22.04,286.13L22.44,303.73L22.74,255.3L22.79,279.84L22.8,287.67L22.88,241.96L23.13,303.85L23.55,290.23L23.56,286.76L23.67,303.93L24.28,274.56L24.31,302.32L24.32,295.27L24.73,282.87L24.75,303.96L25.07,290.51L25.08,297.38L25.26,303.85L25.3,276.73L25.83,294.88L25.84,289.1L25.98,279.9L26.15,303.91L26.59,300.3L26.6,297.05L27.09,303.96L27.23,281.25L27.35,293.43L27.36,297.41L27.43,292.23L27.56,303.95L28.11,294.2L28.12,302.31L28.13,303.95L28.86,269.79L28.87,292.06L28.88,286.71L28.94,269.77L29.09,303.99L29.63,301.44L29.64,302.77L29.67,285.93L30.1,303.99L30.39,300L30.4,300.35L30.56,303.95L31.13,287.95L31.15,302.88L31.16,299L31.7,303.91L31.72,285.79L31.91,299.35L31.92,295.76L32.31,303.8L32.38,263.46L32.67,297.42L32.68,298.37L32.69,274.34L33.34,303.86L33.43,298.32L33.44,302.53L33.63,303.89L33.98,275.77L34.19,287.07L34.2,284.36L34.32,273.4L34.87,303.9L34.95,303.39L34.96,302.55L35.04,287.7L35.17,303.96L35.71,301.06L35.72,301.16L35.77,303.94L36.34,291.01L36.47,300.47L36.48,302.56L36.59,303.97L36.62,290.88L37.23,301.9L37.24,301.85L37.5,303.88L37.72,288.23L37.99,297.54L38,298.33L38.28,303.96L38.74,276.61L38.75,296.63L38.76,295.36L38.76,281.99L38.95,303.89L39.51,298.24L39.52,300.39L39.68,285.26L40.07,303.92L40.27,297.78L40.28,302.56L40.69,303.92L40.81,285.1L41.03,302.31L41.04,295.22L41.41,303.93L41.72,289.21L41.79,298.75L41.8,297.36L42.1,303.92L42.31,284.39L42.55,297.91L42.56,294.66L42.87,303.96L43.18,271.28L43.31,295.83L43.32,294.5L43.36,303.89L43.38,272.58L44.07,288.92L44.08,297.99L44.42,278.39L44.74,303.96L44.83,298.34L44.84,296.92L45.19,280.96L45.35,303.96L45.59,294.08L45.6,295.1L46.11,303.97L46.2,279.1L46.35,296.23L46.36,301.05L46.36,289.01L46.93,303.93L47.11,298.55L47.12,301.51L47.24,293.14L47.35,303.94L47.87,300.55L47.88,301.9L47.92,303.92L48.61,289.72L48.63,299.42L48.64,302.94L48.68,288.9L49.05,303.95L49.39,301.78L49.4,302.67L49.65,303.98L50.07,291.25L50.15,301.15L50.16,300.08L50.18,292.26L50.23,303.99L50.91,299.43L50.92,300.72L51.06,294.86L51.18,303.98L51.67,302.68L51.68,298.13L51.71,303.95L51.86,293.4L52.43,301.66L52.44,300.89L52.59,303.99L52.9,295.84L53.19,302.25L53.2,302.2L53.24,303.95L53.52,293.93L53.95,296.77L53.96,301.94L54.13,291.67L54.26,303.92L54.71,298.44L54.72,299.8L54.8,303.96L54.86,293.98L55.47,301.61L55.48,301.38L56.03,303.95L56.13,294.29L56.23,301.84L56.24,300.83L56.29,303.96L56.58,291.62L56.99,302.52L57,299.79L57.21,303.9L57.68,293.47L57.75,301.33L57.76,301.1L58.04,303.97L58.35,284.52L58.51,301.27L58.52,301.87L58.73,303.97L58.78,296.3L59.27,302.46L59.28,301.27L59.47,295.01L59.54,303.97L60.03,302.06L60.04,301.73L60.27,303.95L60.6,295.58L60.79,299.33L60.8,301.55L61.06,303.97L61.29,296.23L61.55,301.29L61.56,302.19L61.66,303.97L62.04,297.81L62.31,301.41L62.32,303L62.38,303.97L62.84,296.4L63.07,301.76L63.08,302.42L63.18,303.96L63.6,297.25L63.83,298.41L63.84,300.07L64.02,294.35L64.24,303.94L64.59,301.94L64.6,300.97L65.14,295.59L65.16,303.97L65.35,300.03L65.36,298.56L65.57,293.89L65.84,303.96L66.11,302.3L66.12,303.15L66.18,298.18L66.78,304L66.87,303.57L66.88,302.73L67.05,298.66L67.24,303.99L67.63,301.66L67.64,302.3L67.72,303.98L68.39,299.01L68.39,303.52L68.4,302.39L68.55,303.99L68.6,297.85L69.15,301.42L69.16,300.24L69.4,303.97L69.48,296.03L69.91,303.85L69.92,303.61L70.5,299.34L70.6,303.98L70.67,303.73L70.68,303.57L70.98,299.59L71.01,303.97L71.43,303.81L71.44,303.63L71.48,303.98L72.14,299.03L72.19,301.12L72.2,303.55L72.28,303.97L72.79,298.5L72.95,302.83L72.96,303.27L73.31,303.99L73.45,298.42L73.71,303.37L73.72,302.74L74.32,303.99L74.4,297.62L74.47,301.76L74.48,302.51L74.88,303.98L75.14,296.36L75.23,300.33L75.24,301.65L75.31,303.96L75.67,295.51L75.99,302.31L76,302.57L76.37,303.96L76.47,292.66L76.75,301.33L76.76,302.93L77.02,303.97L77.16,294.34L77.51,300.37L77.52,302.21L77.58,303.95L77.79,294.88L78.27,299.23L78.28,298.96L78.76,294.9L78.79,303.94L79.03,302.63L79.04,302.38L79.09,303.95L79.49,294.42L79.79,301.7L79.8,301.33L80.14,294.65L80.37,303.99L80.55,301.07L80.56,298.46L81.15,303.99L81.24,294.9L81.31,300.68L81.32,301.93L81.35,296.07L81.38,303.98L82.07,301.64L82.08,300.59L82.42,303.97L82.72,296.72L82.83,302.35L82.84,303.27L82.91,303.98L83.24,297.28L83.59,300.72L83.6,299.96L83.67,303.99L84.33,296.62L84.35,300.26L84.36,301.76L84.61,303.98L84.93,296.45L85.11,303.54L85.12,302.7L85.21,303.96L85.25,292.87L85.87,302.54L85.88,301.9L85.98,303.92L86.47,295.26L86.63,300.29L86.64,300.68L86.67,294.46L87.06,303.92L87.39,302.97L87.4,302.7L87.47,303.95L87.78,294.47L88.15,302.32L88.16,303.81L88.63,303.97L88.91,295.03L88.91,301.07L88.92,300.28L89.06,296.45L89.24,303.98L89.67,301.83L89.68,302.43L89.76,297.04L89.92,303.96L90.43,303.93L90.44,300.67L90.76,296.24L91.03,303.99L91.19,301.99L91.2,301.67L91.32,298.26L91.95,303.96L91.95,302.39L91.96,301.55L91.98,297.75L92.35,303.95L92.71,301.1L92.72,300.25L92.86,303.98L92.89,297.15L93.47,302.3L93.48,301.96L93.55,303.98L93.89,298.9L94.23,302.81L94.24,303.27L94.24,298.65L94.52,303.98L94.99,301.83L95,303.33L95.19,303.98L95.47,298.4L95.75,302.14L95.76,301.57L96.23,303.96L96.23,297.27L96.51,301.77L96.52,302.61L96.55,303.99L97.26,295.58L97.27,301.87L97.28,301.74L97.32,296.46L97.63,304L98.03,300.39L98.04,300.17L98.08,297.26L98.66,303.98L98.79,302.44L98.8,301.68L99.29,296.72L99.48,303.97L99.55,300.86L99.56,301.19L99.59,297.47L99.62,303.95L100.31,303.29L100.32,301.96L100.68,303.97L100.78,296.56L101.07,302.59L101.08,301.76L101.2,303.97L101.56,297.37L101.83,301.62L101.84,302.46L102.02,303.98L102.06,295.92L102.59,298.71L102.6,301.73L102.78,303.98L103.19,296.72L103.35,300.59L103.36,301.15L103.37,303.99L103.93,296.25L104.11,300.77L104.12,301.71L104.27,296.87L104.45,303.98L104.87,301.54L104.88,303.08L105.08,296.03L105.27,303.98L105.63,302.34L105.64,301.39L105.75,303.96L106.05,296.32L106.39,302.02L106.4,296.92L106.78,294.58L106.9,303.99L107.15,300.51L107.16,301.42L107.89,303.98L107.9,295.94L107.91,303.27L107.92,300.37L107.97,303.98L108.44,297.03L108.67,300.55L108.68,299.35L108.94,297.18L109.25,303.99L109.43,302.72L109.44,302.09L109.46,303.98L110.13,298.87L110.19,303.06L110.2,303.07L110.66,298.88L110.93,303.99L110.95,303.44L110.96,303.5L111.18,299.04L111.28,303.96L111.71,301.7L111.72,301.87L111.81,303.99L112.3,299.61L112.47,302.61L112.48,303.27L112.9,298.99L113.22,303.99L113.23,302.38L113.24,302.77L113.5,298.88L113.98,303.99L113.99,302.96L114,302.13L114.03,303.96L114.67,299.25L114.75,302.5L114.76,303.34L114.86,299.05L115.11,303.97L115.51,303.52L115.52,303.52L115.89,303.98L115.95,300.1L116.27,303.3L116.28,302.1L116.88,300.22L117,303.97L117.03,303.46L117.04,302.05L117.53,300.04L117.75,304L117.79,303.23L117.8,303.76L117.8,300.67L117.83,303.99L118.55,303.58L118.56,303.08L118.79,303.99L118.82,300.88L119.31,302.61L119.32,302.32L119.77,301.47L119.82,303.99L120.07,303.59L120.08,303.14L120.28,303.99L120.29,301.74L120.83,303.45L120.84,303.56L121.04,303.99L121.34,301.54L121.59,303.63L121.6,303.27L121.63,301.61L121.99,303.99L122.35,303.76L122.36,303.6L122.89,302.1L123.04,303.99L123.11,303.52L123.12,303.87L123.58,302.15L123.67,303.99L123.87,303.42L123.88,303.38L124.29,302.27L124.33,304L124.63,303.47L124.64,303.42L124.76,303.99L125.03,302.54L125.39,303.6L125.4,303.66L125.76,303.99L126.04,302.28L126.15,303.94L126.16,303.7L126.45,302.69L126.48,304L126.91,303.42L126.92,303.92L126.92,303.99L127.28,302.74L127.67,303.45L127.68,303.88L128.06,304L128.1,302.8L128.43,303.45L128.44,303.4L128.62,303.99L128.85,302.72L129.19,303.6L129.2,303.54L129.29,303.99L129.71,302.76L129.95,303.26L129.96,303.3L129.96,303.99L130.12,302.77L130.71,303.85L130.72,303.65L130.79,302.84L131,304L131.47,303.79L131.48,303.81L131.91,304L131.96,302.81L132.23,303.89L132.24,303.79L132.25,303.99L132.94,302.75L132.99,303.76L133,303.8L133.26,301.79L133.68,303.99L133.75,303.74L133.76,303.51L134.01,303.99L134.09,302.91L134.51,303.9L134.52,303.48L134.6,304L135.23,302.97L135.27,303.57L135.28,303.85L135.47,303.04L135.55,304L136.03,303.87L136.04,303.73L136.31,304L136.77,302.97L136.79,303.82L136.8,303.77L136.97,302.96L137.53,304L137.55,303.66L137.56,303.65L137.77,303.02L138.27,304L138.31,303.78L138.32,303.84L138.4,302.96L138.78,304L139.07,303.79L139.08,303.95L139.45,304L139.54,302.95L139.83,303.83L139.84,303.58L140.05,303.99L140.3,302.98L140.59,303.53L140.6,303.69L140.68,303.99L141.32,302.9L141.35,303.46L141.36,303.71L141.76,302.93L141.79,304L142.11,303.78L142.12,303.62L142.12,303.99L142.16,302.83L142.87,303.51L142.88,303.74L142.91,303.99L143.56,302.77L143.63,303.81L143.64,303.66L143.66,304L144.37,302.79L144.39,303.58L144.4,303.8L144.46,303.99L144.66,302.77L145.15,303.89L145.16,303.68L145.18,303.99L145.82,302.83L145.91,303.64L145.92,303.74L145.97,302.86L146.05,304L146.67,303.53L146.68,303.62L147.15,302.91L147.37,304L147.43,303.81L147.44,303.55L147.53,304L148.16,302.86L148.19,303.63L148.2,303.36L148.38,302.93L148.69,304L148.95,303.89L148.96,303.85L149.15,304L149.56,302.9L149.71,303.44L149.72,303.51L149.93,304L150.2,303.01L150.47,303.76L150.48,303.76L150.65,303.99L150.89,302.97L151.23,303.81L151.24,303.5L151.39,303.04L151.43,304L151.99,303.84L152,303.76L152.24,303.01L152.73,304L152.75,303.76L152.76,303.7L152.76,303.99L152.97,303.11L153.51,303.78L153.52,303.88L153.58,304L154.23,302.74L154.27,303.53L154.28,303.52L154.82,302.83L154.85,304L155.03,303.63L155.04,303.47L155.16,302.78L155.17,304L155.79,303.74L155.8,303.56L155.93,303.99L156.11,302.97L156.55,303.81L156.56,303.52L156.9,304L157.11,302.91L157.31,303.94L157.32,303.91L157.38,303.99L157.51,302.91L158.07,303.56L158.08,303.78L158.35,304L158.81,302.89L158.83,303.75L158.84,303.92L158.97,303.99L159.35,302.95L159.59,303.69L159.6,303.79L159.75,302.83L159.77,303.99L160.35,303.87L160.36,303.75L160.54,302.9L160.74,304L161.11,303.8L161.12,303.64L161.48,303.99L161.84,302.87L161.87,303.61L161.88,303.15L161.98,303.99L162.08,302.73L162.63,303.87L162.64,303.86L162.67,303.99L162.7,302.79L163.39,303.96L163.4,303.44L163.53,303.99L163.61,302.9L164.15,303.45L164.16,303.37L164.18,303.99L164.52,302.83L164.91,303.89L164.92,303.59L165.45,302.69L165.62,304L165.67,303.33L165.68,303.79L165.98,304L166.43,302.78L166.43,303.79L166.44,303.88L166.71,303.99L166.96,302.81L167.19,303.64L167.2,303.8L167.8,304L167.81,302.65L167.95,303.89L167.96,303.62L168.01,304L168.65,302.31L168.71,303.48L168.72,303.43L168.77,303.99L169.09,302.56L169.47,303.52L169.48,303.51L169.78,302.57L169.86,304L170.23,303.72L170.24,303.94L170.32,302.45L170.47,304L170.99,303.55L171,302.99L171.32,304L171.67,302.5L171.75,303.57L171.76,302.72L171.85,304L171.9,302.42L172.51,303.88L172.52,303.48L172.6,303.99L173.24,302.45L173.27,303.25L173.28,303.25L173.29,302.37L173.3,303.99L174.03,303.43L174.04,303.83L174.06,304L174.22,302.33L174.79,303.79L174.8,303.61L174.99,303.99L175.32,302.39L175.55,303.71L175.56,303.32L175.96,304L176.12,302.3L176.31,303.15L176.32,303.86L176.47,303.99L176.54,302.31L177.07,303.2L177.08,303.74L177.28,302.04L177.39,303.99L177.83,303.77L177.84,303.67L177.9,303.99L178.06,302.22L178.59,303.43L178.6,303.42L178.82,303.98L179.34,301.97L179.35,303.44L179.36,303.31L179.36,302.03L179.82,303.99L180.11,303.7L180.12,302.56L180.22,304L180.44,301.46L180.87,303.57L180.88,303.08L181.02,303.99L181.59,302.04L181.63,303.45L181.64,303.28L181.68,301.98L182.1,304L182.39,303.48L182.4,303.35L182.66,302L182.67,303.99L183.15,303.64L183.16,303.31L183.3,301.82L183.64,304L183.91,303.99L183.92,303.41L183.95,303.99L184.49,301.77L184.67,303.45L184.68,303.23L185.08,301.58L185.38,303.99L185.43,303.68L185.44,303.31L185.6,303.99L185.62,301.57L186.19,303.79L186.2,303.52L186.41,303.98L186.89,301.75L186.95,302.56L186.96,303.37L186.96,303.98L187.64,301.61L187.71,303.48L187.72,303.69L187.78,301.69L188.38,303.99L188.47,302.95L188.48,303.22L188.55,303.98L188.62,301.23L189.23,303.52L189.24,303.56L189.28,303.99L189.29,301.66L189.99,303L190,302.6L190.08,303.99L190.75,301.67L190.75,303.51L190.76,302.77L190.99,301.13L190.99,303.99L191.51,303.23L191.52,303.67L191.9,303.99L192.22,301.44L192.27,302.7L192.28,303.56L192.57,303.99L192.97,301.75L193.03,303.46L193.04,303.84L193.41,303.99L193.43,301.6L193.79,303.33L193.8,303.04L193.94,303.99L194.46,301.79L194.55,302.93L194.56,303.58L194.58,301.66L195,303.99L195.31,303.82L195.32,303.79L195.4,303.99L195.85,301.28L196.07,303.61L196.08,303.56L196.13,301.8L196.33,303.99L196.83,303.64L196.84,302.94L196.84,303.98L197.06,301.79L197.59,303.77L197.6,303.81L197.75,303.99L197.86,301.85L198.35,303.31L198.36,303.44L198.44,303.99L198.89,301.89L199.11,303.58L199.12,303.77L199.15,301.95L199.75,304L199.87,302.79L199.88,303.59L199.99,301.84L200.21,303.99L200.63,303.57L200.64,303.61L200.73,301.81L200.74,303.99L201.39,302.88L201.4,303.11L201.4,301.95L201.93,304L202.15,303.34L202.16,303.3L202.18,303.98L202.23,301.91L202.91,303.33L202.92,303.23L203.34,304L203.35,301.88L203.67,303.33L203.68,303.88L203.96,302.08L204.05,304L204.43,303.63L204.44,303.74L204.53,302.06L204.6,303.99L205.19,303.4L205.2,303.73L205.2,303.99L205.21,301.86L205.95,303.64L205.96,303.58L205.99,302.14L206.09,303.99L206.71,303.17L206.72,303.45L206.77,301.89L206.77,303.99L207.47,303.78L207.48,303.04L207.57,302.01L207.68,303.99L208.23,303.07L208.24,303.63L208.24,303.99L208.51,302.04L208.99,303.48L209,303.67L209.17,303.99L209.69,302.02L209.75,303.47L209.76,303.53L209.81,304L210.12,302.24L210.51,302.6L210.52,303.67L210.67,303.99L210.68,302.25L211.27,303.72L211.28,303.4L211.29,304L211.74,302.1L212.03,303.77L212.04,303.75L212.08,302.02L212.54,304L212.79,303.79L212.8,303.5L212.89,303.99L213.26,302.09L213.55,303.51L213.56,303.55L213.67,302.22L213.78,304L214.31,303.6L214.32,303.44L214.43,303.99L215.07,302.12L215.07,302.51L215.08,303.43L215.13,303.99L215.46,302.09L215.83,303.33L215.84,303.73L215.99,302.32L216.15,303.99L216.59,303.53L216.6,303.84L216.81,302.15L217.05,303.98L217.35,303L217.36,303.47L217.57,303.99L217.97,302.15L218.11,303.42L218.12,303.56L218.43,303.99L218.49,302.12L218.87,303.9L218.88,303.39L218.94,302.35L219.6,303.99L219.63,303.01L219.64,302.9L219.91,303.99L220.1,302.35L220.39,303.26L220.4,303.63L220.53,303.99L220.55,302.08L221.15,303.07L221.16,303.19L221.24,302.29L221.27,304L221.91,303.28L221.92,303.28L222.02,303.99L222.53,302.12L222.67,303.29L222.68,303.44L222.77,303.99L223.2,301.71L223.43,303.8L223.44,303.67L223.59,304L223.97,302.12L224.19,303.3L224.2,303.64L224.37,303.99L224.94,302.14L224.95,303.74L224.96,303.09L225.33,304L225.54,302.11L225.71,303.78L225.72,303.53L225.75,302.05L225.97,303.99L226.47,303.27L226.48,303.46L226.63,304L227.12,302.06L227.23,303.34L227.24,303.5L227.37,302.05L227.42,303.99L227.99,303.82L228,303.34L228.24,303.99L228.72,302.14L228.75,303.5L228.76,303.26L228.81,302.12L229.12,303.99L229.51,303.88L229.52,303.9L229.59,302.12L229.87,303.99L230.27,303.01L230.28,303.29L230.3,302.04L230.43,303.99L231.03,303.49L231.04,303.6L231.46,302.35L231.76,304L231.79,303.73L231.8,303.25L231.81,302.14L231.84,304L232.55,303.95L232.56,303.61L233.17,302.3L233.3,304L233.31,303.75L233.32,303.23L233.33,301.82L233.42,303.99L234.07,303.87L234.08,303.61L234.09,303.99L234.51,302.39L234.83,303.22L234.84,303.71L234.88,302.23L235.12,303.99L235.59,303.32L235.6,303.41L235.79,303.99L236.21,302.23L236.35,303.49L236.36,303.09L236.57,302L236.77,303.99L237.11,303.03L237.12,303.93L237.48,303.99L237.77,302.31L237.87,303.33L237.88,303.71L237.99,303.99L238.14,302.29L238.63,303.51L238.64,303.21L238.74,303.99L238.84,302.36L239.39,303.61L239.4,303.17L239.43,303.99L239.57,302.49L240.15,303.5L240.16,303.76L240.18,303.98L240.88,302.09L240.91,303.63L240.92,303.56L240.96,303.99L241.5,302.41L241.67,302.91L241.68,303.59L241.72,302.17L241.75,303.99L242.43,303.32L242.44,303.63L242.52,303.99L243.07,302.52L243.19,303.69L243.2,303.53L243.57,302.54L243.88,304L243.95,303.21L243.96,303.63L243.99,303.99L244.71,302.47L244.71,303.28L244.72,303.07L244.77,304L245.44,302.41L245.47,303.66L245.48,303.68L245.77,303.99L245.88,302.38L246.23,303.14L246.24,303.29L246.36,302.37L246.4,303.99L246.99,303.23L247,303.74L247,303.99L247.28,302.25L247.75,303.14L247.76,303.39L248.02,304L248.12,302.34L248.51,303.68L248.52,303.6L248.65,303.99L249.14,302.4L249.27,303.37L249.28,303.69L249.32,302.5L249.61,304L250.03,303.87L250.04,303.82L250.05,303.99L250.21,302.37L250.79,303.73L250.8,303.7L250.84,303.99L251.06,302.48L251.55,303.89L251.56,303.62L252.03,302.36L252.06,304L252.31,303.24L252.32,303.63L252.46,302.45L252.5,304L253.07,303.31L253.08,302.89L253.44,303.99L253.8,302.54L253.83,303.11L253.84,303.41L253.92,302.6L254.2,303.99L254.59,303.51L254.6,303.44L254.7,302.29L254.76,303.99L255.35,303.35L255.36,303.4L255.67,304L256.09,302.55L256.11,303.53L256.12,303.95L256.16,303.99L256.56,302.32L256.87,303.67L256.88,303.86L256.95,303.99L257.39,302.43L257.63,303.78L257.64,303.88L257.75,304L258.26,302.52L258.39,303.71L258.4,303.75L258.43,303.99L258.5,302.45L259.15,303.42L259.16,303.45L259.59,302.17L259.72,304L259.91,303.3L259.92,303.84L260.12,303.99L260.45,302.65L260.67,303.95L260.68,303.52L260.7,303.99L261.3,302.46L261.43,303.57L261.44,303.46L261.69,302.62L261.73,304L262.19,303.64L262.2,303.41L262.29,303.99L262.84,302.68L262.95,303.39L262.96,303.65L263.22,302.55L263.26,304L263.71,303.73L263.72,303.5L263.99,302.6L264.35,304L264.47,303.85L264.48,303.78L264.61,302.65L264.77,303.99L265.23,303.75L265.24,303.76L265.58,302.67L265.77,304L265.99,303.66L266,303.5L266.01,302.87L266.23,303.99L266.75,303.24L266.76,303.59L267.01,304L267.13,302.7L267.51,303.8L267.52,303.79L267.53,302.8L267.59,303.99L268.27,303.73L268.28,303.62L268.3,303.99L268.54,302.68L269.03,303.38L269.04,303.37L269.21,304L269.54,302.6L269.79,303.84L269.8,303.71L269.86,304L270.33,302.65L270.55,303.73L270.56,303.87L270.62,303.99L271.28,302.68L271.31,303.66L271.32,303.83L271.46,302.93L271.66,303.99L272.07,303.55L272.08,303.98L272.14,303.99L272.4,302.83L272.83,303.94L272.84,303.24L273.1,303.99L273.55,302.83L273.59,303.74L273.6,303.9L273.6,303.99L274.19,302.56L274.35,303.54L274.36,303.79L274.97,304L274.99,302.76L275.11,303.75L275.12,303.7L275.27,302.85L275.47,304L275.87,303.58L275.88,303.85L275.91,304L275.98,303.01L276.63,303.61L276.64,303.63L276.64,304L277.12,302.78L277.39,303.66L277.4,303.62L277.58,304L278.09,302.92L278.15,303.88L278.16,303.14L278.18,303.99L278.76,303.02L278.91,303.61L278.92,303.55L279,303.99L279.09,302.95L279.67,303.51L279.68,303.93L279.76,303.99L280.17,302.96L280.43,303.89L280.44,303.42L281.02,304L281.15,302.95L281.19,303.71L281.2,303.56L281.23,303.99L281.39,302.97L281.95,303.8L281.96,303.54L281.97,303.99L282.71,302.75L282.71,303.14L282.72,303.51L282.93,304L283.45,302.75L283.47,303.39L283.48,303.46L283.53,302.8L283.63,303.99L284.23,303.74L284.24,303.41L284.28,303.99L284.62,302.89L284.99,303.82L285,303.71L285.21,302.89L285.45,304L285.75,303.65L285.76,303.84L285.88,304L286.04,302.93L286.51,303.56L286.52,303.75L286.66,303.99L286.74,302.86L287.27,303.47L287.28,303.62L287.51,303.99L287.57,302.76L288.03,303.76L288.04,303.79L288.43,303.99L288.67,302.9L288.79,303.71L288.8,303.68L289.11,304L289.23,302.85L289.55,303.44L289.56,303.59L289.6,303.03L289.93,304L290.31,303.79L290.32,303.87L290.33,304L290.49,302.98L291.07,303.91L291.08,303.73L291.18,304L291.57,303.09L291.83,303.69L291.84,303.63L292.2,304L292.37,302.93L292.59,303.72L292.6,303.96L292.85,302.94L292.89,304L293.35,303.47L293.36,303.64L293.76,304L294.08,302.88L294.11,303.35L294.12,303.59L294.16,303L294.21,304L294.87,303.77L294.88,303.53L295.03,304L295.42,302.63L295.63,303.79L295.64,303.82L295.9,304L296.26,303.07L296.39,303.78L296.4,303.74L296.41,303.16L297.13,304L297.15,303.97L297.16,303.7L297.21,303.12L297.42,304L297.91,303.99L297.92,303.78L297.96,304L298.59,302.99L298.67,303.92L298.68,303.8L298.94,304L299.25,303.05L299.43,303.51L299.44,303.77L299.47,303.99L299.72,303.09L300.19,303.84L300.2,303.64L300.56,304L300.79,302.97L300.95,303.6L300.96,303.85L301.25,304L301.47,303.11L301.71,303.6L301.72,303.55L301.92,304L301.95,303.04L302.47,303.53L302.48,303.94L303.09,304L303.13,303.11L303.23,303.73L303.24,303.71L303.33,303.99L303.71,303.06L303.99,303.8L304,303.74L304,303L304.27,304L304.75,303.74L304.76,303.74L305.03,303.99L305.33,302.84L305.51,303.75L305.52,303.89L305.63,304L305.66,303.09L306.27,303.61L306.28,303.74L306.64,304L306.81,303.01L307.03,303.64L307.04,303.76L307.31,302.96L307.44,304L307.79,303.71L307.8,303.52L308.28,303.1L308.49,304L308.55,303.73L308.56,303.3L308.98,302.99L309.16,304L309.31,303.73L309.32,303.76L309.56,304L309.58,303.02L310.07,303.49L310.08,303.84L310.25,304L310.48,303.05L310.83,303.46L310.84,303.37L310.87,303.03L311.45,304L311.59,303.66L311.6,303.34L311.86,304L312.09,303.17L312.35,303.69L312.36,303.74L312.42,303.07L312.45,304L313.11,303.73L313.12,303.57L313.12,303.99L313.75,302.89L313.87,303.79L313.88,303.83L314.35,303.16L314.46,304L314.63,303.79L314.64,303.78L314.69,304L315.05,303.01L315.39,303.92L315.4,303.62L315.78,304L316.1,303.07L316.15,303.83L316.16,303.84L316.17,303.99L316.54,303L316.91,303.7L316.92,303.89L316.98,303.08L317.66,304L317.67,303.76L317.68,303.55L317.69,303.99L318.24,303.06L318.43,303.42L318.44,303.58L318.8,304L319.08,303.12L319.19,303.56L319.2,303.93L319.37,303.04L319.7,304L319.95,303.82L319.96,303.34L320.17,302.97L320.29,304L320.71,303.91L320.72,303.48L320.97,304L321.14,303.11L321.47,303.77L321.48,303.88L321.72,304L322.07,303.01L322.23,303.82L322.24,303.75L322.43,303L322.62,303.99L322.99,303.73L323,303.76L323.13,304L323.54,302.98L323.75,303.67L323.76,303.43L323.81,303.99L323.96,302.99L324.51,303.81L324.52,303.51L324.52,304L325.15,303.09L325.27,303.6L325.28,303.63L325.52,304L325.77,303.05L326.03,303.54L326.04,303.68L326.2,302.99L326.4,304L326.79,303.9L326.8,303.95L326.98,304L327.29,303.03L327.55,303.65L327.56,303.76L327.6,303.99L327.63,303.11L328.31,303.85L328.32,303.82L328.55,303.05L329.06,304L329.07,303.8L329.08,303.59L329.09,303.99L329.25,303.17L329.83,303.61L329.84,303.97L329.94,304L330.52,303.14L330.59,303.79L330.6,303.88L330.64,303.12L330.69,304L331.35,303.76L331.36,303.53L331.43,304L331.53,302.95L332.11,303.65L332.12,303.57L332.38,303.15L332.39,304L332.87,303.81L332.88,303.94L333.16,303.22L333.23,304L333.63,303.86L333.64,303.97L334.09,304L334.23,303.16L334.39,303.62L334.4,303.73L334.55,303.2L334.76,304L335.15,303.63L335.16,303.88L335.19,304L335.84,303.22L335.91,303.65L335.92,303.9L335.92,303.24L336.06,303.99L336.67,303.57L336.68,303.81L336.7,304L336.98,303.18L337.43,303.6L337.44,303.91L337.58,303.02L337.93,304L338.19,303.81L338.2,303.66L338.32,303.18L338.34,304L338.95,303.82L338.96,303.58L339.07,303.32L339.31,304L339.71,303.85L339.72,303.76L340,304L340.09,303.26L340.47,303.81L340.48,303.77L340.55,303.27L340.89,304L341.23,303.6L341.24,303.95L341.26,303.99L341.88,303.32L341.99,303.9L342,303.85L342.04,303.99L342.13,303.33L342.75,303.7L342.76,303.87L342.77,303.99L343.19,303.32L343.51,303.96L343.52,303.75L343.59,304L344.03,303.33L344.27,303.86L344.28,303.77L344.36,303.99L345,303.28L345.03,303.89L345.04,303.81L345.35,304L345.57,303.29L345.79,303.74L345.8,303.61L346.28,304L346.41,303.33L346.55,303.56L346.56,303.87L346.69,304L346.94,303.34L347.31,303.75L347.32,303.73L347.36,304L347.54,303.3L348.07,303.69L348.08,303.68L348.13,304L348.39,303.29L348.83,303.72L348.84,303.8L349,303.23L349.23,304L349.59,303.72L349.6,303.63L349.82,303.24L349.9,304L350.35,303.6L350.36,303.88L350.84,303.17L350.93,304L351.11,303.71L351.12,303.89L351.41,303.32L351.53,304L351.87,303.7L351.88,303.78L352,304L352.63,303.36L352.63,303.74L352.64,303.71L352.89,304L353.15,303.31L353.39,303.58L353.4,303.66L353.63,303.36L353.73,304L354.15,303.77L354.16,303.9L354.17,303.99L354.54,303.29L354.91,303.79L354.92,303.72L355.05,303.38L355.25,304L355.67,303.77L355.68,303.77L355.82,304L356.29,303.27L356.43,303.85L356.44,303.91L356.57,303.38L356.61,304L357.19,303.77L357.2,303.52L357.28,303.32L357.34,304L357.95,303.7L357.96,303.84L358.02,304L358.56,303.33L358.71,303.78L358.72,303.8L358.78,304L359.19,303.35L359.47,303.99L359.48,303.91L359.79,304L360.09,303.31L360.23,303.93L360.24,303.94L360.29,303.32L360.63,304L360.99,303.82L361,303.85L361.06,304L361.33,303.36L361.75,303.85L361.76,303.72L362.11,303.36L362.36,304L362.51,303.69L362.52,303.69L362.65,303.3L362.94,304L363.27,303.61L363.28,303.85L363.56,303.26L363.8,304L364.03,303.67L364.04,303.76L364.33,303.31L364.53,304L364.79,303.9L364.8,303.88L365.07,304L365.12,303.24L365.55,303.79L365.56,303.87L365.57,303.38L365.67,304L366.31,303.73L366.32,303.75L366.76,303.33L366.79,304L367.07,303.58L367.08,303.8L367.2,304L367.26,303.32L367.83,303.8L367.84,303.64L367.85,304L368.49,303.39L368.59,303.94L368.6,303.86L368.7,304L369.27,303.32L369.35,303.78L369.36,303.54L369.37,304L369.7,303.43L370.11,303.76L370.12,303.74L370.19,304L370.28,303.38L370.87,303.89L370.88,303.96L370.94,304L371.19,303.25L371.63,303.79L371.64,303.75L371.67,303.39L372.27,304L372.39,303.85L372.4,303.88L372.46,303.4L373.15,304L373.15,303.83L373.16,303.87L373.21,304L373.61,303.36L373.91,303.93L373.92,303.82L374.11,304L374.67,303.47L374.67,303.72L374.68,303.85L374.68,304L375.1,303.39L375.43,303.84L375.44,303.93L375.48,304L376.04,303.41L376.19,303.84L376.2,303.66L376.22,304L376.44,303.44L376.95,303.8L376.96,303.91L377.2,304L377.26,303.42L377.71,303.81L377.72,303.83L377.99,304L378.02,303.44L378.47,303.91L378.48,303.9L378.58,303.43L378.73,304L379.23,303.87L379.24,303.82L379.33,304L379.84,303.49L379.99,303.89L380,303.75L380.1,304L380.16,303.43L380.75,303.76L380.76,303.84L380.81,304L380.85,303.53L381.51,303.67L381.52,303.68L381.64,303.48L382.23,304L382.27,303.92L382.28,303.74L382.37,304L382.81,303.47L383.03,303.82L383.04,303.84L383.1,304L383.17,303.44L383.78,303.9L383.78,303.96L383.93,304L384.48,303.52L384.53,303.93L384.54,303.88L384.68,304L384.72,303.53L385.29,303.73L385.3,303.81L385.4,304L385.83,303.47L386.05,303.89L386.06,303.96L386.24,303.53L386.24,304L386.81,303.84L386.82,303.69L386.85,304L387.14,303.5L387.57,303.83L387.58,303.87L387.79,304L388.25,303.53L388.33,303.75L388.34,303.7L388.37,304L388.98,303.53L389.09,303.87L389.1,303.91L389.13,304L389.39,303.56L389.85,303.75L389.86,303.89L389.89,304L390.1,303.52L390.61,303.72L390.62,303.59L390.66,303.49L390.77,304L391.37,303.85L391.38,303.86L391.49,303.47L391.56,304L392.13,303.82L392.14,303.89L392.17,304L392.76,303.54L392.89,303.85L392.9,303.77L393.08,304L393.62,303.53L393.65,303.98L393.66,303.84L393.66,303.55L393.67,304L394.41,303.95L394.42,303.94L394.46,304L394.81,303.56L395.17,303.81L395.18,303.78L395.18,304L395.67,303.57L395.93,303.9L395.94,303.81L395.96,304L396.36,303.62L396.69,303.91L396.7,303.77L396.85,304L396.97,303.43L397.45,303.86L397.46,303.99L397.47,304L398.03,303.55L398.21,303.84L398.22,303.9L398.24,304L398.57,303.61L398.97,303.91L398.98,303.83L399.09,304L399.66,303.57L399.73,303.84L399.74,303.88L399.8,304L400.22,303.58L400.49,303.65L400.5,303.86L400.52,303.99L401.24,303.62L401.25,303.79L401.25,303.93L401.25,303.55L401.29,304L402,303.92L402.01,303.85L402.02,303.99L402.71,303.57L402.75,303.81L402.76,303.9L402.91,304L403.23,303.57L403.51,303.91L403.52,303.84L403.56,303.99L404.15,303.56L404.26,303.92L404.26,303.97L404.43,304L404.46,303.57L405.01,303.9L405.02,303.81L405.06,304L405.23,303.55L405.77,303.88L405.78,303.9L405.92,304L406.52,303.62L406.53,303.87L406.53,303.94L406.65,304L407.18,303.59L407.28,303.81L407.29,303.8L407.29,304L407.8,303.58L408.04,303.88L408.05,303.94L408.07,304L408.3,303.57L408.8,303.78L408.81,303.85L408.87,304L409.08,303.57L409.55,303.83L409.55,303.98L409.58,304L409.85,303.59L410.3,303.81L410.31,303.93L410.36,304L410.71,303.61L411.06,303.87L411.07,303.93L411.16,304L411.81,303.59L411.82,303.95L411.83,303.89L411.98,304L412.1,303.61L412.58,303.9L412.59,303.9L412.68,304L413,303.58L413.33,303.99L413.34,303.93L413.41,304L413.99,303.61L414.09,303.87L414.1,303.92L414.2,304L414.78,303.65L414.85,303.89L414.86,303.79L414.86,303.61L414.89,304L415.61,303.9L415.62,303.87L415.68,303.99L416.27,303.64L416.37,303.95L416.37,303.99L416.4,304L416.68,303.6L417.12,303.87L417.13,303.89L417.24,304L417.82,303.64L417.88,303.89L417.89,303.86L417.9,304L418.02,303.63L418.64,303.88L418.65,303.85L418.72,304L419.38,303.7L419.4,303.87L419.4,303.98L419.52,303.67L419.53,304L420.15,303.95L420.16,303.9L420.2,304L420.83,303.64L420.91,303.88L420.91,303.96L420.95,304L421.5,303.62L421.66,303.9L421.67,303.97L421.78,304L422.14,303.63L422.42,303.86L422.43,303.95L422.43,303.68L422.49,304L423.18,303.94L423.19,303.88L423.21,304L423.62,303.6L423.94,303.86L423.94,303.97L424.02,304L424.13,303.62L424.69,303.9L424.7,303.95L424.74,303.66L424.76,304L425.45,303.93L425.46,303.88L425.47,304L426.15,303.65L426.21,303.78L426.21,303.94L426.24,304L426.73,303.64L426.96,303.89L426.97,303.98L427,304L427.13,303.64L427.72,303.87L427.73,303.88L427.8,303.99L428.38,303.61L428.5,303.8L428.5,303.99L428.54,304L428.82,303.64L429.25,303.97L429.26,303.91L429.3,304L429.97,303.64L430.01,303.92L430.01,303.97L430.03,303.66L430.08,304L430.76,303.93L430.77,303.92L430.78,303.62L430.85,304L431.52,303.8L431.53,303.9L431.56,304L431.83,303.65L432.27,303.92L432.28,303.94L432.39,303.63L432.41,304L433.03,303.88L433.04,303.91L433.07,303.99L433.59,303.67L433.79,303.93L433.79,303.96L433.89,304L434.12,303.63L434.54,303.92L434.54,303.95L434.81,304L434.81,303.63L435.29,303.89L435.3,303.98L435.39,304L435.95,303.63L436.05,303.89L436.06,303.85L436.1,303.72L436.79,303.99L436.81,303.84L436.81,303.75L436.82,304L437.56,303.64L437.56,303.91L437.57,303.87L437.68,303.99L438.38,303.73L438.42,303.9L438.42,303.98L438.44,304L439.09,303.72L439.17,303.9L439.18,303.8L439.24,304L439.87,303.63L439.93,303.81L439.94,303.91L439.96,304L440.59,303.68L440.69,303.93L440.69,303.97L440.72,304L441.06,303.66L441.44,303.87L441.45,303.83L441.46,304L441.95,303.66L442.2,303.94L442.21,303.94L442.26,304L442.51,303.73L442.96,303.96L442.97,303.93L443,303.7L443.14,304L443.72,303.9L443.73,303.87L443.77,304L444.37,303.71L444.47,303.91L444.48,303.97L444.48,304L444.7,303.65L445.23,303.93L445.24,303.96L445.26,304L445.91,303.7L445.99,303.9L446,303.9L446.04,303.66L446.05,304L446.75,303.92L446.76,303.98L446.78,303.66L446.78,304L447.51,303.88L447.52,303.93L447.55,304L448.26,303.75L448.27,303.9L448.27,304L448.69,303.7L449.02,303.86L449.03,303.98L449.08,304L449.42,303.72L449.78,303.93L449.79,303.88L450.79,303.99L450.79,303.93L450.79,303.78L450.83,304L451.14,303.71L451.54,303.96L451.55,303.91L451.63,303.99L452.34,303.78L452.35,303.94L452.35,303.99L452.36,304L452.82,303.73L453.1,303.95L453.11,303.96L453.13,304L453.56,303.76L453.86,303.91L453.87,303.98L453.89,304L454.28,303.68L454.62,303.9L454.62,303.98L454.65,304L454.98,303.72L455.37,303.94L455.38,303.94L455.42,304L456.12,303.77L456.14,303.88L456.14,303.97L456.15,304L456.21,303.72L456.89,303.86L456.9,303.92L456.98,304L457.36,303.7L457.64,303.86L457.65,303.99L457.65,304L458.08,303.7L458.4,303.9L458.41,303.96L458.43,304L458.7,303.76L459.16,303.99L459.17,303.92L459.2,304L459.77,303.77L459.91,303.96L459.92,303.97L459.98,304L460.15,303.75L460.67,303.91L460.68,303.98L460.79,304L460.94,303.74L461.43,303.95L461.44,303.92L461.48,303.99L462.11,303.73L462.2,303.86L462.2,304L462.73,303.76L462.95,303.88L462.96,303.95L463.03,303.99L463.68,303.74L463.79,303.9L463.79,303.97L463.81,304L464,303.72L464.54,303.96L464.54,304L464.94,303.75L465.29,303.94L465.3,303.88L466.21,303.99L466.22,303.94L466.22,303.8L466.23,304L466.78,303.77L466.97,303.94L466.98,303.89L468.08,304L468.09,303.91L468.09,303.82L468.17,304L468.84,303.74L468.84,303.94L468.85,303.94L469.79,303.76L469.87,303.96L469.87,303.99L469.9,304L470.59,303.76L470.62,303.91L470.63,303.93L470.73,304L471.45,303.84L471.46,303.93L471.46,303.99L471.51,304L472.05,303.76L472.21,303.96L472.22,303.86L473.07,303.99L473.07,303.95L473.07,303.81L473.23,304L473.47,303.77L473.82,303.91L473.83,303.95L474.68,303.81L474.69,303.91L474.69,303.99L474.77,304L475.43,303.79L475.44,303.96L475.45,303.94L475.54,304L476.28,303.81L476.31,303.95L476.31,303.99L476.35,304L476.38,303.77L477.06,303.95L477.07,303.94L477.94,303.81L477.98,303.97L477.98,303.99L478.03,304L478.46,303.78L478.73,303.93L478.74,303.96L478.78,304L479.44,303.78L479.49,303.91L479.49,303.99L479.54,304L479.68,303.79L480.24,303.9L480.25,303.93L481.53,303.85L481.53,303.93L481.54,304L481.54,303.81L482.29,303.92L482.3,303.95L483.11,303.81L483.13,303.92L483.13,303.99L483.16,304L483.72,303.81L483.89,303.95L483.89,303.99L483.95,304L484.51,303.8L484.64,303.91L484.65,303.94L485.62,303.82L485.66,303.96L485.66,304L486.22,303.77L486.41,303.95L486.42,303.92L487.47,303.8L487.51,303.92L487.51,304L487.95,303.77L488.26,303.89L488.27,303.89L489.38,303.98L489.38,303.9L489.38,303.84L489.38,304L489.9,303.79L490.13,303.96L490.14,303.93L491.29,303.83L491.3,303.88L491.3,303.99L491.8,303.79L492.07,303.94L492.07,303.98L492.84,303.84L492.87,303.97L492.87,303.99L492.94,304L493.3,303.8L493.62,303.92L493.63,303.96L494.47,303.85L494.48,303.95L494.48,303.99L494.56,304L495.16,303.83L495.24,303.85L495.24,303.97L495.28,303.99L496,303.85L496.01,303.9L496.01,303.99L496.01,304L496.44,303.8L496.76,303.93L496.77,303.98L497.52,303.81L497.56,303.96L497.56,303.99L497.63,304L498.31,303.81L498.31,303.96L498.32,303.95L499.25,303.84L499.27,303.94L499.27,303.99L500.06,303.82L500.07,303.9L500.07,303.99L500.07,304L500.73,303.8L500.82,303.99L500.83,303.92L502.15,304L502.15,303.99L502.15,303.85L502.26,303.84L502.9,304L502.9,303.95L502.91,303.97L503.71,303.87L503.72,303.97L503.72,303.99L503.74,304L504.05,303.79L504.47,303.93L504.48,303.9L505.68,304L505.69,303.92L505.69,303.86L506.57,304L506.57,303.84L506.63,304L507.23,303.82L507.32,303.99L507.33,303.95L508.58,303.85L508.59,303.95L508.59,303.99L509.38,303.86L509.39,303.96L509.39,303.99L510.14,303.86L510.17,303.95L510.17,303.99L510.21,304L510.85,303.84L510.93,303.91L510.93,303.96L512.19,303.91L512.19,304L513,303.86L513.02,303.93L513.02,303.97L514.15,303.83L514.16,303.96L514.16,303.99L515.1,303.86L515.1,303.98L515.1,303.99L516.08,303.85L516.09,303.92L516.09,303.99L516.11,304L516.67,303.83L516.84,303.99L516.85,303.97L518.05,303.87L518.07,303.94L518.07,304L518.94,303.86L518.95,303.96L518.96,303.99L519,304L519.67,303.83L519.73,303.96L519.73,303.97L520.92,303.86L520.94,303.93L520.94,303.99L521.82,303.89L521.83,303.95L521.83,303.98L522.65,303.86L522.68,303.97L522.68,303.98L523.6,303.87L523.61,303.98L523.61,304L524.53,303.88L524.54,303.93L524.55,303.98L525.6,303.86L525.61,303.93L525.61,303.99L526.54,303.88L526.55,303.97L526.55,303.99L527.4,303.88L527.43,303.95L527.43,304L528.36,303.86L528.38,303.98L528.38,303.99L529.42,303.85L529.45,303.93L529.45,303.99L530.48,303.87L530.51,303.94L530.51,304L531.25,303.84L531.27,303.97L531.28,303.97L532.37,303.9L532.37,303.99L533.34,303.88L533.34,303.94L533.34,304L534.1,303.84L534.18,303.9L534.18,304L535.1,303.86L535.12,303.98L535.12,303.99L536.09,303.87L536.1,303.94L536.1,303.99L537.06,303.88L537.08,303.97L537.08,303.99L538.24,303.88L538.25,303.96L538.25,304L539.04,303.84L539.08,303.92L539.08,303.97L540,303.88L540,303.93" style="vector-effect: none; fill: none; stroke: rgb(0, 0, 0); stroke-opacity: 1; stroke-width: 2px; opacity: 1;"/></g><g class="points"/><g class="text"/></g></g></g></g><path class="xlines-above crisp" d="M0,0" style="fill: none;"/><path class="ylines-above crisp" d="M0,0" style="fill: none;"/><g class="overlines-above"/><g class="xaxislayer-above"><g class="xtick"><text text-anchor="middle" x="0" y="433" transform="translate(80,0)" style="font-family: 'Open Sans', verdana, arial, sans-serif; font-size: 12px; fill: rgb(42, 63, 95); fill-opacity: 1; white-space: pre; opacity: 1;">0</text></g><g class="xtick"><text text-anchor="middle" x="0" y="433" style="font-family: 'Open Sans', verdana, arial, sans-serif; font-size: 12px; fill: rgb(42, 63, 95); fill-opacity: 1; white-space: pre; opacity: 1;" transform="translate(202.45,0)">5k</text></g><g class="xtick"><text text-anchor="middle" x="0" y="433" style="font-family: 'Open Sans', verdana, arial, sans-serif; font-size: 12px; fill: rgb(42, 63, 95); fill-opacity: 1; white-space: pre; opacity: 1;" transform="translate(324.9,0)">10k</text></g><g class="xtick"><text text-anchor="middle" x="0" y="433" style="font-family: 'Open Sans', verdana, arial, sans-serif; font-size: 12px; fill: rgb(42, 63, 95); fill-opacity: 1; white-space: pre; opacity: 1;" transform="translate(447.35,0)">15k</text></g><g class="xtick"><text text-anchor="middle" x="0" y="433" style="font-family: 'Open Sans', verdana, arial, sans-serif; font-size: 12px; fill: rgb(42, 63, 95); fill-opacity: 1; white-space: pre; opacity: 1;" transform="translate(569.8,0)">20k</text></g></g><g class="yaxislayer-above"><g class="ytick"><text text-anchor="end" x="79" y="4.199999999999999" transform="translate(0,404)" style="font-family: 'Open Sans', verdana, arial, sans-serif; font-size: 12px; fill: rgb(42, 63, 95); fill-opacity: 1; white-space: pre; opacity: 1;">0</text></g><g class="ytick"><text text-anchor="end" x="79" y="4.199999999999999" style="font-family: 'Open Sans', verdana, arial, sans-serif; font-size: 12px; fill: rgb(42, 63, 95); fill-opacity: 1; white-space: pre; opacity: 1;" transform="translate(0,352.75)">0.2</text></g><g class="ytick"><text text-anchor="end" x="79" y="4.199999999999999" style="font-family: 'Open Sans', verdana, arial, sans-serif; font-size: 12px; fill: rgb(42, 63, 95); fill-opacity: 1; white-space: pre; opacity: 1;" transform="translate(0,301.5)">0.4</text></g><g class="ytick"><text text-anchor="end" x="79" y="4.199999999999999" style="font-family: 'Open Sans', verdana, arial, sans-serif; font-size: 12px; fill: rgb(42, 63, 95); fill-opacity: 1; white-space: pre; opacity: 1;" transform="translate(0,250.25)">0.6</text></g><g class="ytick"><text text-anchor="end" x="79" y="4.199999999999999" style="font-family: 'Open Sans', verdana, arial, sans-serif; font-size: 12px; fill: rgb(42, 63, 95); fill-opacity: 1; white-space: pre; opacity: 1;" transform="translate(0,199)">0.8</text></g><g class="ytick"><text text-anchor="end" x="79" y="4.199999999999999" style="font-family: 'Open Sans', verdana, arial, sans-serif; font-size: 12px; fill: rgb(42, 63, 95); fill-opacity: 1; white-space: pre; opacity: 1;" transform="translate(0,147.75)">1</text></g></g><g class="overaxes-above"/></g></g><g class="polarlayer"/><g class="smithlayer"/><g class="ternarylayer"/><g class="geolayer"/><g class="funnelarealayer"/><g class="pielayer"/><g class="iciclelayer"/><g class="treemaplayer"/><g class="sunburstlayer"/><g class="glimages"/><defs id="topdefs-3386d1"><g class="clips"/></defs><g class="layer-above"><g class="imagelayer"/><g class="shapelayer"/></g><g class="infolayer"><g class="g-gtitle"><text class="gtitle" x="35" y="50" text-anchor="start" dy="0em" style="opacity: 1; font-family: 'Open Sans', verdana, arial, sans-serif; font-size: 17px; fill: rgb(42, 63, 95); fill-opacity: 1; white-space: pre;">FFT</text></g><g class="g-xtitle"><text class="xtitle" x="350" y="459.8" text-anchor="middle" style="opacity: 1; font-family: 'Open Sans', verdana, arial, sans-serif; font-size: 14px; fill: rgb(42, 63, 95); fill-opacity: 1; white-space: pre;">Fréquence (Hz)</text></g><g class="g-ytitle"><text class="ytitle" transform="rotate(-90,39.975,260)" x="39.975" y="260" text-anchor="middle" style="opacity: 1; font-family: 'Open Sans', verdana, arial, sans-serif; font-size: 14px; fill: rgb(42, 63, 95); fill-opacity: 1; white-space: pre;">Amplitude</text></g></g></svg>